<svg width="20" height="21" viewBox="0 0 20 21" fill="none" xmlns="http://www.w3.org/2000/svg">
  <path d="M6.667 2.167v2.5m6.666-2.5v2.5M2.917 8.075h14.166m-1.075 5.567-2.95 2.95a1.03 1.03 0 0 0-.25.491l-.158 1.125c-.058.409.225.692.633.634l1.125-.159a1 1 0 0 0 .492-.25l2.95-2.95c.508-.508.75-1.1 0-1.85-.742-.741-1.333-.5-1.842.009" stroke-width="1.25" stroke-miterlimit="10" stroke-linecap="round" stroke-linejoin="round"/>
  <path d="M15.583 14.067c.25.9.95 1.6 1.85 1.85M10 18.833H6.667c-2.917 0-4.167-1.666-4.167-4.166V7.583c0-2.5 1.25-4.166 4.167-4.166h6.666c2.917 0 4.167 1.666 4.167 4.166V10.5" stroke-width="1.25" stroke-miterlimit="10" stroke-linecap="round" stroke-linejoin="round"/>
  <path d="M9.996 11.917h.008m-3.092 0h.007m-.007 2.5h.007" stroke-width="1.667" stroke-linecap="round" stroke-linejoin="round"/>
</svg>
