<svg width="20" height="21" viewBox="0 0 20 21" fill="none" xmlns="http://www.w3.org/2000/svg">
  <path d="M4.166 8.833h1.667q2.5 0 2.5-2.5V4.667q0-2.5-2.5-2.5H4.166q-2.5 0-2.5 2.5v1.666q0 2.5 2.5 2.5m10 0h1.667q2.5 0 2.5-2.5V4.667q0-2.5-2.5-2.5h-1.667q-2.5 0-2.5 2.5v1.666q0 2.5 2.5 2.5m0 10h1.667q2.5 0 2.5-2.5v-1.666q0-2.5-2.5-2.5h-1.667q-2.5 0-2.5 2.5v1.666q0 2.5 2.5 2.5m-10 0h1.667q2.5 0 2.5-2.5v-1.666q0-2.5-2.5-2.5H4.166q-2.5 0-2.5 2.5v1.666q0 2.5 2.5 2.5" stroke-width="1.25" stroke-miterlimit="10" stroke-linecap="round" stroke-linejoin="round"/>
</svg>