<svg width="32" height="32" viewBox="0 0 32 32" fill="none" xmlns="http://www.w3.org/2000/svg">
<path d="M3.44006 25.3467L3.4134 25.3733C3.0534 24.5867 2.82673 23.6933 2.7334 22.7067C2.82673 23.68 3.08006 24.56 3.44006 25.3467Z" fill="#CBD1E1"/>
<path d="M12 13.84C13.7526 13.84 15.1733 12.4192 15.1733 10.6666C15.1733 8.91404 13.7526 7.49329 12 7.49329C10.2474 7.49329 8.82666 8.91404 8.82666 10.6666C8.82666 12.4192 10.2474 13.84 12 13.84Z" fill="#CBD1E1"/>
<path d="M21.5867 2.66663H10.4134C5.56008 2.66663 2.66675 5.55996 2.66675 10.4133V21.5866C2.66675 23.04 2.92008 24.3066 3.41341 25.3733C4.56008 27.9066 7.01341 29.3333 10.4134 29.3333H21.5867C26.4401 29.3333 29.3334 26.44 29.3334 21.5866V18.5333V10.4133C29.3334 5.55996 26.4401 2.66663 21.5867 2.66663ZM27.1601 16.6666C26.1201 15.7733 24.4401 15.7733 23.4001 16.6666L17.8534 21.4266C16.8134 22.32 15.1334 22.32 14.0934 21.4266L13.6401 21.0533C12.6934 20.2266 11.1867 20.1466 10.1201 20.8666L5.13341 24.2133C4.84008 23.4666 4.66675 22.6 4.66675 21.5866V10.4133C4.66675 6.65329 6.65341 4.66663 10.4134 4.66663H21.5867C25.3467 4.66663 27.3334 6.65329 27.3334 10.4133V16.8133L27.1601 16.6666Z" fill="#CBD1E1"/>
</svg>
