<svg width="20" height="21" viewBox="0 0 20 21" fill="none" xmlns="http://www.w3.org/2000/svg">
<path d="M10.0155 2.9248C7.25719 2.9248 5.01552 5.16647 5.01552 7.9248V10.3331C5.01552 10.8415 4.79885 11.6165 4.54052 12.0498L3.58219 13.6415C2.99052 14.6248 3.39885 15.7165 4.48219 16.0831C8.07385 17.2831 11.9489 17.2831 15.5405 16.0831C16.5489 15.7498 16.9905 14.5581 16.4405 13.6415L15.4822 12.0498C15.2322 11.6165 15.0155 10.8415 15.0155 10.3331V7.9248C15.0155 5.1748 12.7655 2.9248 10.0155 2.9248Z" stroke="#8C8C8C" stroke-width="1.25" stroke-miterlimit="10" stroke-linecap="round"/>
<path d="M11.5579 3.1667C11.2996 3.0917 11.0329 3.03337 10.7579 3.00003C9.95794 2.90003 9.19128 2.95837 8.47461 3.1667C8.71628 2.55003 9.31628 2.1167 10.0163 2.1167C10.7163 2.1167 11.3163 2.55003 11.5579 3.1667Z" stroke="#8C8C8C" stroke-width="1.25" stroke-miterlimit="10" stroke-linecap="round" stroke-linejoin="round"/>
<path d="M12.5156 16.3833C12.5156 17.7583 11.3906 18.8833 10.0156 18.8833C9.33229 18.8833 8.69896 18.6 8.24896 18.15C7.79896 17.7 7.51562 17.0666 7.51562 16.3833" stroke="#8C8C8C" stroke-width="1.25" stroke-miterlimit="10"/>
</svg>
