<svg width="20" height="21" viewBox="0 0 20 21" fill="none" xmlns="http://www.w3.org/2000/svg">
  <path d="M7.634 9.558a1.5 1.5 0 0 0-.275 0 3.683 3.683 0 0 1-3.558-3.691c0-2.042 1.65-3.7 3.7-3.7a3.696 3.696 0 0 1 .133 7.392m6.041-5.726A2.915 2.915 0 0 1 16.59 6.75a2.92 2.92 0 0 1-2.808 2.917 1 1 0 0 0-.217 0M3.468 12.633c-2.017 1.35-2.017 3.55 0 4.892 2.291 1.533 6.05 1.533 8.341 0 2.017-1.35 2.017-3.55 0-4.892-2.283-1.525-6.041-1.525-8.341 0m11.815 4.534a4 4 0 0 0 1.633-.725c1.3-.975 1.3-2.584 0-3.559-.458-.35-1.016-.583-1.608-.716" stroke-width="1.25" stroke-linecap="round" stroke-linejoin="round"/>
</svg>