<svg width="20" height="21" viewBox="0 0 20 21" fill="none" xmlns="http://www.w3.org/2000/svg">
<path d="M10 13C11.3807 13 12.5 11.8807 12.5 10.5C12.5 9.11929 11.3807 8 10 8C8.61929 8 7.5 9.11929 7.5 10.5C7.5 11.8807 8.61929 13 10 13Z" stroke="#8C8C8C" stroke-width="1.25" stroke-miterlimit="10" stroke-linecap="round" stroke-linejoin="round"/>
<path d="M1.66602 11.2334V9.76669C1.66602 8.90003 2.37435 8.18336 3.24935 8.18336C4.75768 8.18336 5.37435 7.1167 4.61602 5.80836C4.18268 5.05836 4.44102 4.08336 5.19935 3.65003L6.64102 2.82503C7.29935 2.43336 8.14935 2.6667 8.54102 3.32503L8.63268 3.48336C9.38268 4.7917 10.616 4.7917 11.3743 3.48336L11.466 3.32503C11.8577 2.6667 12.7077 2.43336 13.366 2.82503L14.8077 3.65003C15.566 4.08336 15.8243 5.05836 15.391 5.80836C14.6327 7.1167 15.2493 8.18336 16.7577 8.18336C17.6243 8.18336 18.341 8.89169 18.341 9.76669V11.2334C18.341 12.1 17.6327 12.8167 16.7577 12.8167C15.2493 12.8167 14.6327 13.8834 15.391 15.1917C15.8243 15.95 15.566 16.9167 14.8077 17.35L13.366 18.175C12.7077 18.5667 11.8577 18.3334 11.466 17.675L11.3743 17.5167C10.6243 16.2084 9.39102 16.2084 8.63268 17.5167L8.54102 17.675C8.14935 18.3334 7.29935 18.5667 6.64102 18.175L5.19935 17.35C4.44102 16.9167 4.18268 15.9417 4.61602 15.1917C5.37435 13.8834 4.75768 12.8167 3.24935 12.8167C2.37435 12.8167 1.66602 12.1 1.66602 11.2334Z" stroke="#8C8C8C" stroke-width="1.25" stroke-miterlimit="10" stroke-linecap="round" stroke-linejoin="round"/>
</svg>
