<svg width="220" height="173" viewBox="0 0 220 173" fill="none" xmlns="http://www.w3.org/2000/svg">
<path d="M125.086 68.4874C125.065 68.4818 125.044 68.4766 125.022 68.4729C125.093 65.9556 125.54 63.5187 126.462 61.1669C126.687 61.1313 126.905 61.0692 126.992 61.0014C127.322 60.7467 127.616 60.4658 127.879 60.1676C128.647 61.673 129.374 63.1925 130.024 64.7381C130.199 65.427 130.408 66.2178 130.631 67.0394C128.738 66.7249 126.787 67.4302 125.086 68.4874ZM142.902 69.5918C142.968 69.2941 143.02 69.0599 143.055 68.9001C143.394 65.5513 143.98 62.232 144.131 58.8669C142.673 60.3106 139.809 63.2313 137.823 65.793C140.061 66.0019 141.73 67.7232 142.902 69.5918ZM131.536 94.2511C131.536 94.2534 131.537 94.2553 131.537 94.2581C131.885 99.8624 135.901 103.71 140.732 104.939C139.982 99.0866 139.592 93.1322 139.841 87.2554C137.814 90.012 134.847 92.9205 131.536 94.2511ZM125.837 93.4318C131.996 95.2101 136.63 90.4723 139.916 85.184C139.958 83.7416 140.08 82.4666 140.308 81.4211C140.311 81.4034 140.316 81.3856 140.319 81.3678C140.736 77.9527 141.409 74.5867 142.387 71.3047C142.326 71.2795 142.277 71.2426 142.25 71.1884C141.245 69.2347 139.607 66.9114 137.305 66.4823C136.948 66.9726 136.629 67.4447 136.376 67.8789C135.933 68.6374 135.531 69.3287 135.169 69.9535C134.729 70.8962 134.311 71.8497 133.893 72.8031C133.925 72.9985 133.958 73.1934 133.985 73.3906C134.014 73.5921 133.74 73.7636 133.43 73.8543C132.857 75.1475 132.266 76.4319 131.596 77.6798C131.35 78.1378 129.98 78.2154 130.318 77.5863C131.078 76.172 131.725 74.6895 132.365 73.2014C132.091 72.254 131.503 70.2078 130.935 68.149C128.826 67.2381 126.681 68.2397 124.877 69.6329C124.833 69.667 124.774 69.696 124.705 69.7199C124.353 70.3167 124.009 70.9191 123.678 71.5291C122.788 73.7323 121.331 77.4512 119.844 81.7198C119.961 86.8174 121.14 92.0759 125.837 93.4318ZM150.169 145.606C149.98 145.086 149.796 144.564 149.622 144.039C146.787 135.472 144.684 126.6 142.891 117.759C142.123 113.973 141.428 110.078 140.889 106.13C135.257 104.946 130.726 100.809 130.193 94.6946C127.927 95.2802 125.544 95.061 123.221 93.5089C120.43 91.644 119.186 88.5098 118.705 85.0886C117.508 88.7482 116.384 92.6059 115.625 96.137C115.07 99.3908 114.658 102.666 114.364 105.92C113.965 111.61 113.744 118.93 113.652 125.826C113.68 131.581 113.917 137.344 114.504 143.028C114.682 144.756 114.943 146.475 115.251 148.19C115.297 148.19 115.339 148.195 115.371 148.207C118.535 149.374 121.726 150.66 125.05 151.3C127.522 151.775 130.002 151.88 132.487 151.73C132.667 151.708 132.847 151.686 133.023 151.659C139.154 150.715 146.254 148.312 149.263 147.229C149.66 146.942 150.03 146.628 150.384 146.298C150.323 146.104 150.252 145.875 150.169 145.606ZM53.9802 31.7104C53.9064 31.7104 53.8475 31.7025 53.7951 31.6917C53.7372 31.6931 53.6965 31.6945 53.6947 31.6945L53.4217 31.7085L53.4619 31.3262C53.159 31.3664 52.8894 31.3262 52.9123 31.1482C53.2455 28.5453 54.0176 24.7021 52.4066 22.2605C50.839 20.5466 48.3016 19.6516 45.2795 19.7764C45.2739 19.7764 45.2693 19.7778 45.2636 19.7783C43.7208 20.219 42.3687 21.2725 41.6415 23.0177C41.175 24.137 40.8549 25.277 40.6343 26.4314C40.4324 27.6199 40.3099 28.8599 40.2365 30.054C41.0437 30.9682 41.9196 31.8492 43.1263 32.1544C44.9253 32.6092 46.7597 32.2493 48.5699 32.0394C48.6236 32.0329 49.2677 31.9773 49.1223 32.2091C47.8912 34.173 46.2947 35.8383 44.5906 37.3993C44.0471 37.8971 43.4998 38.3911 42.9506 38.8837C43.6208 38.8244 44.2494 38.6215 44.8369 38.2761C45.5871 37.949 46.3237 37.6615 47.1051 37.4227C47.2523 37.3778 47.8814 37.2465 47.8398 37.5526C47.7281 38.3803 46.5569 40.3849 49.3368 39.0436C49.4191 39.0038 50.5941 38.7173 50.4048 39.0492C50.0066 39.7446 49.6757 40.4714 49.2691 41.1626C48.8718 41.838 52.1271 41.4935 52.2734 41.4706C53.8283 41.2299 55.3609 40.886 56.9055 40.5892C56.9607 40.5789 57.6052 40.5331 57.458 40.7588C56.1891 42.7055 53.5068 44.1169 54.9042 46.7917C55.0272 47.0268 55.1664 47.2488 55.3057 47.4699C57.1154 47.1152 58.8185 46.2865 60.3426 44.7255C60.7988 44.1987 61.2447 43.6257 61.6691 43.0125C61.9252 42.6424 62.1439 42.2647 62.3281 41.8829C64.6561 36.6697 60.1407 31.7132 53.9802 31.7104ZM55.8904 41.3061C53.1955 41.8632 50.4193 42.5732 47.6865 42.002C47.5365 41.9707 47.543 41.8562 47.6211 41.7585C48.1137 41.1425 48.439 40.4513 48.7965 39.7666C47.8903 39.9928 46.9948 39.9736 45.9764 39.6507C45.9189 39.6325 45.8011 39.5684 45.8581 39.4834C46.1418 39.0608 46.3185 38.6458 46.4241 38.178C44.7986 38.7706 43.3236 39.532 41.54 39.6722C41.4157 39.682 40.9689 39.6226 41.2087 39.4076C43.5119 37.3423 45.903 35.2938 47.6085 32.6858C44.9295 33.0064 42.3047 33.285 40.1692 31.6936C40.0982 36.0963 40.4959 40.5747 39.0765 44.8189C39.0709 44.8358 39.0601 44.8516 39.0499 44.868L40.8366 45.4036C45.0416 46.1888 49.6252 47.9148 53.7811 47.6611C53.697 47.4951 53.6189 47.3264 53.5502 47.154C52.4108 44.2959 54.4242 43.3313 55.8904 41.3061Z" fill="#DAFB59"/>
<path d="M124.483 45.633C123.435 45.633 122.4 45.6176 121.374 45.3816C121.058 45.3087 121.012 44.953 121.201 44.7352C121.44 44.4595 121.821 44.4006 122.158 44.4786C122.956 44.6623 123.793 44.6544 124.607 44.6548C125.526 44.6553 125.253 45.6335 124.483 45.633ZM147.879 41.5426C147.891 41.0471 148.115 40.5335 148.455 40.1759C148.664 39.9572 148.272 39.9455 148.136 39.9568C147.855 39.9806 147.435 40.0633 147.23 40.2792C146.81 40.7204 146.539 41.2911 146.524 41.9052C146.519 42.1137 147.869 41.9352 147.879 41.5426ZM135.87 164.485C133.086 162.777 130.182 161.277 127.534 159.355C127.123 159.057 125.892 159.645 126.471 160.065C128.912 161.836 131.566 163.255 134.154 164.794C136.789 166.361 137.687 169.469 139.844 171.532C140.231 171.901 141.512 171.373 141.094 170.973C139.131 169.095 138.217 165.923 135.87 164.485ZM219.858 157.015C219.27 159.433 216.8 159.465 215.499 157.494C215.478 157.462 215.454 157.43 215.433 157.398C216.443 159.855 217.563 163.073 216.108 165.319C215.096 166.881 213.261 165.351 212.066 164.007C212.151 165.398 211.728 166.454 210.441 166.799C208.208 167.397 206.133 164.831 205.17 163.149C203.497 160.225 202.272 157.135 200.26 154.431C199.668 156.28 199.279 158.195 198.623 160.025C198.212 161.174 197.732 162.809 196.308 162.988C194.448 163.222 194.169 159.288 193.984 158.228C193.315 154.395 193.16 150.53 193.742 146.682C193.37 146.823 193.006 146.956 192.654 147.081C192.417 147.165 191.913 147.328 191.731 147.067C186.785 139.925 181.712 132.878 176.507 125.923C171.741 119.554 167.458 112.881 163.511 106.004C163.455 110.079 164.109 114.219 164.952 118.169C165.919 122.704 167.084 127.561 169.621 131.508C170.024 132.135 168.743 132.68 168.386 132.124C165.804 128.107 164.543 123.157 163.597 118.531C162.627 113.792 161.838 108.816 162.223 103.965C162.227 103.908 162.244 103.858 162.266 103.809C161.169 101.852 160.098 99.8787 159.05 97.8924C155.249 102.594 150.11 106.519 144.158 106.477C143.527 106.473 142.904 106.431 142.289 106.357C142.316 106.561 142.343 106.763 142.37 106.964C142.956 110.978 143.704 114.934 144.532 118.769C146.456 127.67 148.453 136.671 151.521 145.259C151.573 145.406 151.63 145.551 151.684 145.698C151.951 145.69 152.132 145.744 151.987 145.892C151.932 145.948 151.872 145.998 151.816 146.052C154.735 153.862 159.281 161.122 161.24 169.255C161.256 169.321 161.245 169.383 161.217 169.442C168.509 169.299 176.091 167.309 180.899 161.521C178.677 160.358 177.423 158.453 176.389 156.15C174.595 156.611 172.788 157.003 170.952 157.224C171.284 157.71 170.097 158.211 169.667 157.77C169.54 157.64 169.422 157.502 169.297 157.369C169.051 157.383 168.807 157.405 168.561 157.411C168.121 157.422 168.558 157.177 168.97 157.016C166.106 153.883 163.788 150.126 161.961 146.329C160.268 142.811 158.68 138.986 158.697 135.019C158.619 135.019 158.541 135.02 158.462 135.02C157.654 135.02 158.395 134.517 158.864 134.405C159.159 134.135 159.76 134.088 159.984 134.377C163.342 134.345 166.562 134.095 169.562 132.321C169.925 132.106 171.149 132.13 170.367 132.592C167.153 134.493 163.687 134.921 160.074 135.003C160.081 139.354 162.08 143.779 164.119 147.512C165.924 150.817 167.985 154.063 170.581 156.811C172.53 156.656 174.443 156.249 176.337 155.757C176.478 155.427 177.112 155.251 177.479 155.453C178.138 155.273 178.794 155.089 179.45 154.905C175.442 147.791 172.05 140.061 170.57 131.997C170.512 131.68 171.876 131.371 171.924 131.634C173.416 139.765 176.851 147.556 180.902 154.718C180.995 154.882 180.345 155.077 180.277 155.095C179.434 155.327 178.591 155.563 177.747 155.791C178.728 157.974 179.933 159.841 182.215 160.842C182.513 160.972 182.604 161.261 182.398 161.525C177.231 168.138 168.684 170.415 160.612 170.483C160.058 170.487 159.929 170.114 160.085 169.816C159.985 169.779 159.91 169.716 159.887 169.617C157.992 161.75 153.731 154.691 150.766 147.173C150.658 147.214 150.483 147.28 150.255 147.364C146.231 150.248 140.456 151.293 135.826 151.931C132.44 152.399 128.953 152.711 125.56 152.151C122.064 151.575 118.752 150.418 115.442 149.201C116.718 155.94 118.586 162.617 118.832 169.444C119.391 169.445 119.488 170.145 118.858 170.412C118.81 170.871 117.789 171.117 117.558 170.857C111.194 172.936 102.893 174.557 97.0772 170.479C92.9699 167.599 93.606 162.266 93.6144 157.834C93.6144 157.8 93.6204 157.768 93.6284 157.736C92.1907 157.49 90.7456 156.962 89.4748 156.334C89.1645 156.388 88.8593 156.313 88.8149 156.042C88.8116 156.023 88.8088 156.004 88.8055 155.984C88.7504 155.954 88.6934 155.924 88.6391 155.893C88.3639 155.739 88.4709 155.528 88.7088 155.367C87.1767 145.391 87.8287 133.206 93.6569 124.697C93.9313 124.296 95.0282 124.239 95.0188 124.633C95.1067 124.663 95.1848 124.711 95.2413 124.783C95.6204 125.267 96.0644 125.623 96.5495 125.9C98.0909 115.529 100.306 105.298 103.458 95.3377C99.1902 97.4858 94.5776 99.1375 89.937 100.233C85.5727 101.262 80.2249 102.342 75.8624 100.705C70.5479 98.7103 68.3026 91.6108 66.8393 86.666C64.7917 79.7469 63.799 72.5797 61.8832 65.6288C61.8192 65.3975 62.359 65.1638 62.7773 65.1236C62.4749 64.9857 62.3814 64.6885 62.9203 64.4763C63.0811 64.4127 63.2405 64.345 63.4008 64.2805C63.3849 64.2819 63.3638 64.2842 63.3522 64.2847C63.1984 64.2917 62.8895 64.2267 62.9605 64.043C62.9493 64.0332 62.9446 64.0276 62.9283 64.0159C62.8208 63.9369 62.7114 63.8608 62.6044 63.7818C62.2921 63.5514 61.9827 63.3074 61.7215 63.0195C61.3345 62.5932 61.0587 62.1357 60.9185 61.6258C57.0996 67.4325 53.7915 73.5369 51.2649 80.0975C51.2106 80.2381 51.0157 80.3489 50.7909 80.419C50.9372 80.4812 51.0835 80.5466 51.2298 80.6078C51.3527 80.6597 50.3184 81.2182 49.9525 81.0645C32.5445 73.7519 14.4098 60.5106 7.80718 42.1165C7.76839 42.0085 7.98198 41.873 8.25026 41.7748C20.6348 22.1483 39.3799 5.33671 62.4426 0.0268401C62.803 -0.0563531 63.0442 0.0646977 63.1446 0.240899C63.5358 0.0838602 64.0715 0.0614287 64.093 0.288107C64.3103 2.56657 65.9377 5.01936 66.9692 6.9917C68.8981 10.6812 70.969 14.2982 73.1232 17.8606C75.4563 21.7188 77.8563 25.5522 80.4932 29.2117C81.6509 30.8186 82.9217 32.8928 84.5463 34.2248C84.9646 34.0776 85.525 34.0762 85.4628 34.3543C85.4512 34.408 85.4507 34.4669 85.454 34.5286C85.7278 34.6866 85.7938 35.01 85.2941 35.2475C81.2279 37.1801 78.1484 40.9116 75.5175 44.4618C75.4904 44.4983 75.4558 44.53 75.4184 44.559C76.2247 49.4926 75.5914 54.452 75.2301 59.3964C75.4787 59.3122 75.7288 59.2323 75.9798 59.1529C75.9218 58.6645 76.986 58.3004 77.2884 58.7402C79.7043 62.253 80.5418 66.8492 81.808 70.8499C82.9605 74.4917 84.3542 80.226 88.0825 82.1506C90.4797 83.3882 92.8768 81.9894 94.8169 80.5391C98.4069 77.8559 101.815 74.8974 105.532 72.3885C108.605 70.3143 111.913 68.4967 115.535 67.589C116.948 67.2348 118.375 66.8408 119.672 66.2537C119.768 65.2241 119.848 64.194 119.895 63.162C119.947 61.98 121.039 61.5421 122.045 61.1976C122.74 60.9597 126.228 60.4452 126.491 59.8848C126.563 59.732 126.719 59.6235 126.899 59.5595L127.746 58.3364L127.767 58.3625C128.133 57.3109 128.184 56.1528 127.822 55.0652C127.131 52.9905 125.798 52.2586 123.796 51.6384C120.573 50.6401 118.134 49.3959 115.944 46.7178C114.744 45.2512 114.014 43.4462 113.653 41.4963C113.466 41.5098 113.277 41.5145 113.086 41.5047C106.197 41.1537 110.16 31.328 115.009 30.0965C115.308 29.351 115.64 28.6448 115.999 27.9882C115.878 27.9587 115.784 27.8994 115.747 27.7961C114.595 24.6193 112.26 22.1137 110.686 19.1599C110.181 19.1893 109.604 18.9673 110.228 18.635C116.978 15.0418 125.331 15.4727 132.689 16.3724C141.278 17.4226 150.103 18.7962 157.358 23.8579C157.667 24.0743 157.413 24.3421 157.063 24.4898C154.953 28.1545 152.437 31.5837 150.657 35.4316C150.643 35.461 150.623 35.4891 150.598 35.5157C152.653 36.8337 153.752 39.6062 152.994 41.9613C152.277 44.1884 150.579 46.4482 148.245 47.1497C147.536 47.3628 146.897 47.3951 146.326 47.2876C144.263 50.0231 144.551 53.8229 144.656 57.1787C144.835 57.1324 145.036 57.1357 145.203 57.1777L145.227 57.1544L145.223 57.1824C145.417 57.2362 145.552 57.3436 145.534 57.4862C145.769 57.4652 145.957 57.4895 145.956 57.5713C145.954 57.9657 145.998 58.3359 146.063 58.6939C146.151 58.6794 146.237 58.6719 146.309 58.6785C147.719 58.8009 149.378 59.2833 150.654 59.868C151.993 60.4816 151.743 60.9069 151.265 62.1894C151.04 62.7937 150.817 63.4009 150.594 64.0099C151.431 64.4889 152.301 64.9105 153.132 65.2965C156.442 66.8366 160.351 68.1125 162.779 70.9845C163.948 72.368 165.007 73.893 166.007 75.4751C166.305 68.5523 165.733 61.5804 166.445 54.6735C166.965 49.6357 168.512 43.5565 174.512 43.133C175.434 43.0681 175.175 44.1033 174.401 44.1575C166.903 44.6871 167.659 56.3804 167.506 61.666C167.354 66.888 167.687 72.1618 167.281 77.3708C167.277 77.4231 167.27 77.475 167.266 77.5273C168.64 79.8549 169.929 82.2418 171.268 84.4642C174.046 89.0748 176.755 93.7547 179.783 98.2083C184.379 104.966 189.581 111.32 194.445 117.884C197.122 121.496 199.783 125.128 202.259 128.882C203.478 130.73 204.742 132.621 205.766 134.613C206.004 134.575 206.234 134.606 206.342 134.746C209.324 138.62 212.142 142.623 214.877 146.674C216.18 148.605 217.593 150.522 218.75 152.546C219.483 153.835 220.229 155.486 219.858 157.015ZM149.875 60.8004C148.783 60.3667 147.545 59.9282 146.351 59.7474C146.947 61.2687 148.157 62.4329 149.572 63.3789C150.024 62.2123 150.373 60.9981 149.875 60.8004ZM117.698 86.7015C117.985 85.7882 118.279 84.8839 118.576 83.9926C118.57 83.9211 118.563 83.8491 118.557 83.7776C118.254 84.745 117.967 85.7205 117.698 86.7015ZM120.02 76.3874C121.086 73.9463 122.295 71.5767 123.663 69.2987C123.659 69.2879 123.654 69.2772 123.654 69.2646C123.674 67.4427 123.884 65.656 124.316 63.9117C123.44 65.0909 122.269 66.0397 120.964 66.7562C120.721 69.1683 120.419 71.5753 120.217 73.9907C120.157 74.7053 120.085 75.5143 120.02 76.3874ZM150.169 145.606C149.98 145.086 149.796 144.564 149.623 144.039C146.787 135.472 144.684 126.6 142.891 117.759C142.123 113.973 141.428 110.078 140.889 106.13C135.257 104.946 130.726 100.809 130.193 94.6946C127.927 95.2802 125.544 95.061 123.221 93.5088C120.43 91.644 119.186 88.5098 118.705 85.0886C117.509 88.7481 116.384 92.6059 115.625 96.1369C115.07 99.3908 114.658 102.666 114.365 105.92C113.965 111.61 113.744 118.929 113.652 125.826C113.68 131.58 113.917 137.344 114.504 143.028C114.682 144.756 114.943 146.475 115.251 148.19C115.297 148.19 115.339 148.195 115.371 148.206C118.535 149.374 121.726 150.66 125.05 151.3C127.522 151.775 130.002 151.88 132.487 151.73C132.667 151.708 132.847 151.686 133.023 151.659C139.154 150.715 146.254 148.312 149.264 147.229C149.66 146.942 150.03 146.628 150.384 146.298C150.323 146.104 150.252 145.875 150.169 145.606ZM119.836 80.3386C120.275 79.1019 120.706 77.9237 121.118 76.8263C120.665 77.8825 120.241 78.9538 119.84 80.0358C119.838 80.1367 119.837 80.2372 119.836 80.3386ZM139.841 87.2549C137.814 90.0119 134.846 92.9204 131.536 94.251C131.536 94.2534 131.537 94.2552 131.537 94.258C131.885 99.8624 135.901 103.71 140.732 104.939C139.982 99.0861 139.592 93.1317 139.841 87.2549ZM140.319 81.3678C140.736 77.9527 141.409 74.5866 142.388 71.3047C142.326 71.2794 142.277 71.2425 142.25 71.1883C141.245 69.2347 139.608 66.9113 137.305 66.4823C136.948 66.9726 136.629 67.4446 136.376 67.8788C135.934 68.6374 135.532 69.3286 135.169 69.9535C134.729 70.8962 134.311 71.8496 133.893 72.8031C133.925 72.9984 133.958 73.1934 133.985 73.3906C134.014 73.592 133.74 73.7636 133.43 73.8542C132.857 75.1475 132.266 76.4318 131.596 77.6797C131.35 78.1377 129.98 78.2153 130.318 77.5862C131.078 76.1719 131.725 74.6894 132.365 73.2013C132.091 72.2539 131.503 70.2077 130.935 68.1489C128.826 67.238 126.681 68.2396 124.877 69.6329C124.833 69.667 124.774 69.696 124.705 69.7198C124.353 70.3166 124.009 70.9191 123.678 71.529C122.788 73.7322 121.331 77.4512 119.844 81.7197C119.962 86.8179 121.141 92.0763 125.837 93.4322C131.997 95.2106 136.63 90.4728 139.917 85.1844C139.959 83.7421 140.081 82.467 140.308 81.4215C140.311 81.4028 140.316 81.3855 140.319 81.3678ZM126.463 61.1673C125.54 63.5191 125.093 65.956 125.022 68.4733C125.044 68.477 125.065 68.4822 125.086 68.4878C126.787 67.4306 128.738 66.7253 130.632 67.0408C130.409 66.2187 130.199 65.4283 130.025 64.7394C129.374 63.1938 128.648 61.6744 127.88 60.169C127.616 60.4671 127.322 60.748 126.993 61.0028C126.905 61.0696 126.687 61.1313 126.463 61.1673ZM137.824 65.7929C140.061 66.0018 141.73 67.7232 142.903 69.5917C142.968 69.294 143.02 69.0599 143.056 68.9C143.395 65.5513 143.981 62.2319 144.131 58.8668C142.674 60.3106 139.81 63.2312 137.824 65.7929ZM141.539 82.353C142.372 80.785 143.091 79.2604 143.699 77.9354C145.559 73.8734 147.147 69.6992 148.684 65.5059C148.764 65.2863 148.953 64.8656 149.167 64.366C147.615 63.4518 146.179 62.3432 145.347 60.8597C145.044 64.1505 144.455 67.4119 144.248 70.7162C144.236 70.9139 144.007 71.0729 143.741 71.1547C142.654 74.796 141.944 78.5458 141.539 82.353ZM138.139 35.4671C138.198 35.4531 138.253 35.4447 138.298 35.4447C139.975 35.4447 141.653 35.4447 143.331 35.4447C143.233 33.1905 143.505 30.913 143.532 28.6537C143.533 28.5644 143.594 28.4854 143.686 28.4177L143.68 28.312C134.95 28.0765 126.228 27.5558 117.495 27.4885C117.034 28.2901 116.625 29.1491 116.272 30.0493C118.717 30.705 119.636 32.5946 119.52 34.6586C120.347 34.6586 121.175 34.6586 122.002 34.6586C122.344 34.4744 122.93 34.4333 123.054 34.6586C124.275 34.6586 125.497 34.6586 126.718 34.6586C126.834 34.6586 126.922 34.673 126.986 34.6974C128.388 32.5437 130.704 30.8639 133.246 30.634C133.407 30.6195 133.525 30.6335 133.612 30.6639C133.713 30.6415 133.808 30.633 133.885 30.648C136.621 31.1892 138.29 33.077 138.139 35.4671ZM130.413 41.7543C130.377 41.7393 130.356 41.7183 130.356 41.6907C130.366 38.6392 130.498 35.5896 130.511 32.5381C127.015 35.1988 124.994 41.7052 130.413 41.7543ZM131.867 32.0585C131.857 35.1493 131.721 38.2373 131.711 41.328C131.71 41.5122 131.412 41.6515 131.095 41.7258C136.257 41.1504 139.61 32.7573 133.105 31.4346C133.095 31.4355 133.086 31.4383 133.075 31.4393C132.501 31.4911 131.929 31.6846 131.378 31.9791C131.643 31.9468 131.867 31.9679 131.867 32.0585ZM114.988 40.2919C118.283 38.6266 119.711 32.525 115.928 30.9873C114.933 33.9313 114.541 37.2235 114.988 40.2919ZM113.526 40.7008C113.104 37.5007 113.617 33.993 114.677 30.9798C111.018 32.4016 108.75 41.0859 113.526 40.7008ZM128.574 53.3476C129.613 55.1858 129.608 57.2436 128.72 58.9524C128.78 58.9781 128.828 59.0159 128.856 59.0697C130.337 61.9197 131.693 64.8128 132.677 67.8339C132.71 67.855 132.744 67.8709 132.776 67.8928C132.966 68.0195 132.944 68.1662 132.821 68.2957C133.064 69.0758 133.283 69.8638 133.47 70.663C134.328 68.7584 135.271 66.9024 136.525 65.2288C138.511 62.5769 140.696 60.1227 143.305 58.1003C143.247 54.2996 142.779 50.004 145.236 46.865C144.339 46.3051 143.693 45.3012 143.318 44.0426C143.15 43.4789 144.502 43.1087 144.672 43.6799C145.002 44.7857 145.619 45.812 146.47 46.2355C146.573 46.2565 146.662 46.293 146.728 46.343C147.325 46.5426 148.023 46.4514 148.806 45.9125C150.192 44.9568 151.375 43.4308 151.717 41.7505C152.066 40.0334 151.599 38.0681 150.291 36.8319C148.375 35.0208 146.533 35.9672 145.491 38.1452C145.375 38.3882 144.977 38.5266 144.646 38.5224C144.272 38.656 143.796 38.6897 143.745 38.4859C143.542 37.6736 143.425 36.8557 143.365 36.0341C141.6 36.0341 139.835 36.0341 138.069 36.0341C137.975 36.5603 137.803 37.1053 137.529 37.6638C136.071 40.634 133.125 42.7045 129.759 42.5572C126.135 42.3993 124.923 39.3608 126.152 36.292C126.265 36.0111 126.397 35.7359 126.54 35.4638C126.433 35.5092 126.322 35.5377 126.22 35.5377C125.041 35.5377 123.863 35.5377 122.686 35.5377C121.479 37.5147 118.836 40.8139 121.965 41.7772C122.732 42.0132 121.58 42.6633 121.139 42.5273C117.283 41.3407 120.046 37.8984 121.414 35.5377C120.747 35.5377 120.08 35.5377 119.413 35.5377C118.968 37.8853 117.31 40.2573 115.135 41.1462C115.778 44.3608 117.393 47.2605 120.263 49.1547C122.674 50.7452 127.061 50.669 128.574 53.3476ZM121.085 65.497C122.32 64.7011 123.349 63.6252 124.001 62.0819C124.133 61.7693 124.648 61.6304 124.998 61.7066C125.036 61.6066 125.07 61.5061 125.109 61.4061C123.328 61.6982 121.352 61.7851 121.249 63.4191C121.204 64.1127 121.147 64.8049 121.085 65.497ZM66.6378 51.9936C66.6776 51.9426 66.75 51.8964 66.8379 51.8562C67.0837 51.092 67.3361 50.3213 67.5473 49.5272C68.1358 47.3114 68.004 45.4405 67.9586 43.2116C67.9198 41.2836 67.438 37.4563 69.9113 36.8267C72.6525 36.1294 74.4108 40.4746 75.116 43.1597C77.502 40.0376 80.2595 36.9763 83.699 35.0484C81.7654 33.6822 80.2876 31.2168 78.9817 29.3697C76.5266 25.898 74.2364 22.3072 72.0365 18.6686C69.7936 14.9595 67.61 11.2056 65.6138 7.35625C64.6206 5.44188 63.0661 3.09611 62.7679 0.879339C62.7366 0.889621 62.7137 0.905511 62.6787 0.913456C39.937 6.14948 21.4859 22.8391 9.34158 42.2175C9.34065 42.2189 9.33925 42.2198 9.33831 42.2212C15.905 59.903 33.1531 72.7475 50.002 80.082C53.9892 69.8114 59.8674 60.6447 66.6378 51.9936ZM64.3958 63.743C64.4084 63.7925 64.4038 63.8383 64.3869 63.8799C67.5534 62.5587 70.6517 61.0743 73.8667 59.882C74.1691 55.7097 74.7426 51.4944 74.3645 47.3091C74.1836 45.3068 73.8864 43.227 73.0488 41.378C72.832 40.899 70.174 36.9908 69.9698 37.3525C68.7541 39.5053 69.3033 42.8012 69.4024 45.1694C69.5851 49.5441 66.5705 53.4013 67.2982 57.7867C67.3501 58.0985 65.9844 58.3953 65.9442 58.1494C65.7162 56.7735 65.8554 55.4933 66.148 54.2389C64.6711 56.1934 63.2409 58.1756 61.8729 60.1937C62.0486 60.2133 62.173 60.2863 62.1646 60.433C62.0902 61.6734 62.9292 62.6026 63.87 63.2854C64.0163 63.392 64.3453 63.5448 64.3958 63.743ZM98.2292 155.011C98.5279 152.332 98.082 149.556 98.2797 146.842C98.7368 140.563 99.5543 134.201 101.752 128.27C101.524 128.431 101.206 128.523 100.963 128.426C98.6789 127.518 96.091 127.604 94.3341 125.766C89.1042 134.185 88.6003 145.902 90.1263 155.415C92.4076 156.579 97.8301 158.594 98.2292 155.011ZM113.816 148.059C113.706 147.845 113.604 147.589 113.515 147.28C113.42 146.947 113.34 145.963 113.278 144.494C113.197 143.84 113.124 143.184 113.066 142.527C112.269 133.47 112.117 124.229 112.46 115.142C112.894 103.615 114.382 91.3832 118.448 80.3087C118.482 78.0835 118.682 75.9247 118.843 74.0888C119.038 71.8679 119.325 69.6488 119.556 67.4259C119.187 67.575 118.813 67.7087 118.436 67.8251C116.209 68.5121 113.959 68.9042 111.821 69.8965C109.714 70.8742 107.719 72.0506 105.828 73.4004C101.987 76.1402 98.4961 79.5399 94.4771 82.0081C92.7184 83.0882 90.7816 83.8916 88.6845 83.528C84.4248 82.7891 82.4973 77.2647 81.2887 73.7565C79.7473 69.2837 78.9499 63.9449 76.3929 59.8736C71.9449 61.2598 67.8081 63.4359 63.4816 65.139C63.3853 65.1769 63.2867 65.1947 63.19 65.1998C63.211 65.2194 63.2283 65.2414 63.2358 65.269C64.9581 71.5155 65.8769 77.9513 67.5917 84.1987C68.4106 87.1824 69.343 90.1741 70.7096 92.9587C71.7832 95.147 73.0297 97.919 75.1749 99.2646C79.5351 102 85.6989 100.797 90.3652 99.5932C94.7772 98.4551 99.143 96.9165 103.197 94.8212C103.3 94.768 103.478 94.7324 103.659 94.7179C105.047 90.39 106.608 86.1126 108.374 81.8992C108.543 81.494 109.873 81.3407 109.721 81.7038C103.782 95.8817 100.099 110.765 97.8586 125.949C97.8366 126.097 97.6413 126.225 97.4062 126.305C98.7826 126.827 100.361 126.964 101.744 127.513C101.858 127.558 101.932 127.615 101.979 127.676C102.233 127.219 103.508 127.082 103.316 127.578C100.204 135.621 99.4547 144.509 99.6585 153.044C99.7235 155.764 98.8149 157.619 95.9611 157.861C95.6409 157.888 95.3147 157.894 94.9852 157.882C94.9604 161.779 94.2645 167.297 98.118 169.692C103.957 173.32 111.301 171.899 117.478 169.858C117.222 162.499 115.084 155.331 113.816 148.059ZM147.331 148.398C145.097 149.155 142.041 150.121 138.836 150.928C141.714 150.437 144.755 149.713 147.331 148.398ZM158.494 96.8352C157.698 95.3115 156.915 93.7799 156.143 92.2422C156.003 91.9632 157.306 91.4986 157.497 91.8796C158.127 93.1363 158.768 94.3856 159.416 95.6298C162.957 90.7494 165.211 84.803 165.762 79.0917C165.792 78.7799 165.816 78.4677 165.841 78.156C165.442 77.5124 165.047 76.866 164.643 76.2266C163.464 74.3665 162.337 72.0305 160.665 70.5602C157.752 67.9989 153.911 66.8669 150.518 65.111C150.427 65.0638 150.335 65.0143 150.244 64.9656C147.731 71.8538 145.232 78.9094 141.299 85.1021C140.88 91.1626 141.174 97.3339 141.898 103.412C141.978 104.02 142.058 104.623 142.137 105.219C144.897 105.619 147.823 105.185 150.427 103.759C153.511 102.07 156.228 99.6656 158.494 96.8352ZM193.868 146.051C194.011 145.843 194.412 145.704 194.734 145.7C199.058 143.893 203.889 141.055 205.203 136.733C205.205 136.724 205.212 136.716 205.215 136.708C204.048 133.914 202.295 131.321 200.622 128.826C198.1 125.065 195.435 121.402 192.732 117.77C187.922 111.307 182.718 105.052 178.265 98.3331C175.066 93.5065 172.134 88.507 169.14 83.5523C168.421 82.3619 167.701 81.1715 166.976 79.9843C166.378 84.0706 165.135 87.976 163.163 91.6669C162.281 93.3186 161.21 95.0404 159.975 96.7015C165.566 107.329 171.819 117.486 179.052 127.126C183.802 133.457 188.382 139.919 192.89 146.425C193.21 146.307 193.536 146.182 193.868 146.051ZM218.551 156.653C218.52 154.631 217.495 153.078 216.425 151.442C213.296 146.657 210.054 141.933 206.627 137.353C206.498 137.419 206.335 137.477 206.172 137.516C204.351 141.612 199.455 144.359 195.15 146.129C194.597 149.492 194.569 152.941 195.084 156.312C195.299 157.725 195.519 159.175 195.931 160.548C196.115 161.163 196.555 161.888 196.343 162.197C198.01 159.766 198.212 156.414 199.217 153.688C199.258 153.578 199.371 153.484 199.515 153.413C199.494 153.02 200.542 152.673 200.832 153.017C202.557 155.069 203.925 157.441 205.098 159.845C206.102 161.901 207.208 164.808 209.488 165.851C211.506 166.775 210.239 162.487 210.054 161.983C209.695 161.006 209.286 160.054 208.866 159.101C208.662 158.638 208.452 158.181 208.237 157.727C207.5 156.279 206.775 154.824 205.966 153.41C205.663 152.881 206.973 152.439 207.219 152.862C207.849 153.943 209.773 157.049 211.003 160.067C211.066 160.177 211.128 160.289 211.192 160.398C211.961 161.694 212.767 163.108 213.88 164.147C214.308 164.546 214.98 165.384 215.2 164.54C215.341 164 215.422 163.454 215.379 162.891C215.152 159.91 213.87 157.026 212.576 154.367C211.814 152.801 210.351 150.972 209.967 149.266C209.845 148.726 211.091 148.431 211.321 148.904C212.424 151.173 214.277 153.164 215.658 155.27C216.223 156.131 218.597 159.628 218.551 156.653ZM15.9624 27.3703C16.5448 26.9052 15.188 26.9898 14.8964 27.2226C9.00694 31.9253 4.96413 38.3522 0.0576024 43.9809C-0.291061 44.3805 1.05125 44.2463 1.30456 43.9561C6.15314 38.3929 10.1413 32.0183 15.9624 27.3703ZM1.2396 38.3667C2.41272 36.8707 3.32878 35.0292 4.96787 33.9809C5.74231 33.485 4.60191 33.1083 4.0892 33.4364C2.34167 34.5548 1.37047 36.4355 0.122568 38.0279C-0.399493 38.693 0.89374 38.8084 1.2396 38.3667ZM42.7703 80.7709C40.6736 80.0572 38.6639 79.1393 36.8042 77.9316C36.4046 77.6718 35.1618 78.2443 35.7344 78.6163C37.6712 79.8745 39.7697 80.8055 41.9519 81.5477C42.4127 81.7048 43.5428 81.0341 42.7703 80.7709ZM34.2458 79.5595C32.4674 78.642 31.0933 77.3142 29.8459 75.77C29.5664 75.4241 28.2648 75.8929 28.5854 76.2897C29.8791 77.8905 31.3228 79.2459 33.1624 80.1951C33.5368 80.3882 34.7875 79.839 34.2458 79.5595ZM83.0428 25.2334C83.433 26.6407 84.3304 27.8339 85.3404 28.8631C85.7278 29.258 87.0145 28.7299 86.5878 28.2948C85.6288 27.3175 84.7683 26.2088 84.3968 24.8707C84.2411 24.308 82.8876 24.6735 83.0428 25.2334ZM85.9723 24.0178C86.2195 24.3272 87.5174 23.8692 87.2389 23.521C86.0073 21.9824 84.7627 20.4096 83.0713 19.3529C82.7048 19.1243 81.5205 19.6726 81.8047 19.8497C83.4961 20.9069 84.7407 22.4792 85.9723 24.0178ZM175.219 46.3939C175.219 43.5616 175.219 40.7298 175.219 37.898C175.219 37.4161 176.406 37.1651 176.557 37.4656C176.622 37.4381 176.691 37.4156 176.764 37.4039C178.347 37.1534 179.047 38.3677 179.315 39.9974C179.549 39.8306 179.876 39.7581 180.14 39.846C180.584 39.9932 181.008 40.104 181.471 40.1273C181.471 38.6897 181.471 37.252 181.471 35.8139C181.471 35.3096 182.769 35.0591 182.821 35.4293C182.825 35.4283 182.828 35.426 182.832 35.4251C187.061 34.438 185.533 46.0294 185.397 48.1597C185.38 48.4308 185.048 48.5892 184.831 48.6579C183.671 49.0229 183.007 48.9369 181.944 48.3635C181.942 48.3625 181.941 48.3616 181.939 48.3607C181.683 48.3817 181.471 48.3256 181.471 48.1662C181.471 46.9099 181.471 45.6541 181.471 44.3978C181.276 44.5366 181.012 44.5847 180.782 44.5847C180.296 44.5847 179.81 44.5847 179.324 44.5847C179.257 45.3087 179.182 45.9224 179.145 46.3154C179.121 46.5795 178.803 46.7552 178.579 46.8136C177.565 47.0768 176.799 47.0478 175.821 46.6524C175.772 46.6328 175.731 46.6108 175.695 46.5879C175.436 46.6103 175.219 46.5552 175.219 46.3939ZM182.825 36.328C182.825 40.0703 182.825 43.8126 182.825 47.5549C182.887 47.5643 182.945 47.5787 182.994 47.6054C183.349 47.6437 183.705 47.6816 184.06 47.7199C184.191 45.1432 184.529 35.9649 183.068 36.3056C182.979 36.3262 182.9 36.3294 182.825 36.328ZM179.407 40.7354C179.491 41.6963 179.464 42.7367 179.399 43.6813C179.435 43.6789 179.472 43.6733 179.507 43.6733C180.095 43.6733 180.683 43.6733 181.271 43.6733C181.339 43.6733 181.408 43.6888 181.471 43.7163C181.471 42.8185 181.471 41.9207 181.471 41.0228C181.349 41.0527 181.224 41.0705 181.106 41.0686C180.518 41.0598 179.96 40.9167 179.407 40.7354ZM176.632 38.3494C176.611 38.3527 176.593 38.3527 176.573 38.355C176.573 40.8237 176.573 43.2929 176.573 45.7625C176.586 45.7662 176.6 45.7681 176.612 45.7733C176.992 45.9836 177.393 46.0654 177.816 46.0308C178.006 44.1108 178.567 38.0428 176.632 38.3494ZM188.291 38.5887C189.355 37.6629 190.343 36.5103 191.699 36.0158C191.818 35.9724 192.293 35.7326 192.079 35.5428C191.862 35.3507 191.423 35.4858 191.193 35.5695C189.604 36.149 188.474 37.3614 187.227 38.4471C186.662 38.9388 188.011 38.8327 188.291 38.5887ZM190.119 42.239C189.536 42.3058 188.936 42.9209 189.887 42.8124C190.953 42.6909 192.05 42.9924 193.098 43.1494C193.426 43.1985 194.672 42.6498 193.962 42.5432C192.673 42.3493 191.428 42.0894 190.119 42.239ZM192.822 47.7185C191.373 47.6596 190.123 46.7711 188.934 46.0256C188.519 45.7658 187.281 46.3542 187.867 46.7206C189.243 47.5834 190.643 48.4869 192.314 48.5546C192.872 48.5775 193.741 47.7554 192.822 47.7185ZM63.6097 35.3975C65.2394 38.1723 64.3986 41.7295 62.3744 44.058C61.1896 45.4209 59.8057 46.5356 58.2722 47.331C57.5123 47.8966 56.764 48.3102 56.0634 48.5401C57.3319 50.1194 58.9579 51.3995 60.4161 52.8129C60.6671 53.0564 59.4187 53.557 59.1444 53.291C57.6791 51.8707 55.725 50.4774 54.4519 48.7406C54.1766 48.7257 53.856 48.6967 53.5027 48.6574C53.0666 48.6836 52.6249 48.6897 52.1767 48.6673C47.4627 48.4275 43.0572 46.5047 38.3769 46.0308C37.6511 45.9574 37.9904 45.3863 38.4713 45.182L38.4503 45.1755L38.4531 45.1619C38.0741 45.2423 37.6763 45.2194 37.7362 45.0409C39.3439 40.233 38.5905 35.3138 38.8415 30.39C36.5864 27.7797 33.2437 25.3937 32.1716 22.0268C32.0664 21.6973 33.4124 21.3084 33.5256 21.6641C34.4112 24.4431 36.9869 26.5636 38.9789 28.6504C38.9864 28.5831 38.9906 28.5163 38.9985 28.449C39.35 25.4335 40.1899 22.2618 42.6034 20.4596C43.2059 19.875 43.9312 19.4833 44.8043 19.3543C47.4403 18.5116 50.7316 18.5967 52.7675 20.7144C55.3951 23.4485 54.709 27.388 54.2654 30.8219C54.3332 30.8027 54.401 30.7901 54.4664 30.7901C58.1073 30.7924 61.6986 32.1441 63.6097 35.3975ZM62.3286 41.8828C64.6561 36.6697 60.1408 31.7132 53.9808 31.7103C53.9069 31.7103 53.848 31.7024 53.7957 31.6916C53.7377 31.6931 53.6971 31.6945 53.6952 31.6945L53.4223 31.7085L53.4625 31.3262C53.1596 31.3664 52.8899 31.3262 52.9128 31.1481C53.2461 28.5453 54.0182 24.702 52.4071 22.2604C50.8395 20.5466 48.3021 19.6515 45.2801 19.7763C45.2745 19.7763 45.2698 19.7777 45.2642 19.7782C43.7214 20.2189 42.3693 21.2724 41.642 23.0176C41.1756 24.137 40.8554 25.2769 40.6348 26.4313C40.4329 27.6199 40.3105 28.8598 40.2371 30.054C41.0442 30.9681 41.9201 31.8492 43.1269 32.1544C44.9258 32.6091 46.7603 32.2492 48.5704 32.0394C48.6242 32.0328 49.2682 31.9772 49.1229 32.209C47.8918 34.173 46.2952 35.8382 44.5912 37.3993C44.0476 37.897 43.5003 38.391 42.9512 38.8836C43.6214 38.8243 44.25 38.6214 44.8375 38.2761C45.5876 37.9489 46.3242 37.6615 47.1057 37.4226C47.2529 37.3778 47.882 37.2464 47.8404 37.5526C47.7287 38.3803 46.5574 40.3849 49.3374 39.0435C49.4196 39.0038 50.5946 38.7173 50.4053 39.0491C50.0071 39.7446 49.6762 40.4713 49.2696 41.1626C48.8724 41.8379 52.1276 41.4935 52.2739 41.4706C53.8289 41.2299 55.3614 40.8859 56.9061 40.5891C56.9612 40.5788 57.6058 40.533 57.4585 40.7588C56.1896 42.7054 53.5073 44.1169 54.9048 46.7917C55.0277 47.0268 55.167 47.2488 55.3063 47.4698C57.116 47.1151 58.8191 46.2864 60.3432 44.7254C60.7993 44.1987 61.2452 43.6257 61.6696 43.0125C61.9257 42.6423 62.1445 42.2647 62.3286 41.8828ZM39.05 44.8684L40.8367 45.404C45.0417 46.1892 49.6253 47.9153 53.7812 47.6615C53.6971 47.4955 53.619 47.3268 53.5503 47.1544C52.4109 44.2963 54.4243 43.3317 55.8905 41.3065C53.1956 41.8636 50.4194 42.5736 47.6866 42.0025C47.5366 41.9711 47.5431 41.8566 47.6212 41.759C48.1138 41.143 48.4391 40.4517 48.7966 39.767C47.8904 39.9932 46.9949 39.974 45.9765 39.6511C45.919 39.6329 45.8012 39.5688 45.8582 39.4838C46.1419 39.0613 46.3186 38.6462 46.4242 38.1784C44.7987 38.771 43.3236 39.5324 41.5401 39.6726C41.4158 39.6824 40.969 39.623 41.2088 39.4081C43.512 37.3427 45.9031 35.2942 47.6086 32.6862C44.9296 33.0069 42.3048 33.2854 40.1693 31.694C40.0983 36.0967 40.496 40.5751 39.0766 44.8193C39.071 44.8362 39.0602 44.8521 39.05 44.8684Z" fill="#1B1E27"/>
</svg>
