<svg width="165" height="173" viewBox="0 0 165 173" fill="none" xmlns="http://www.w3.org/2000/svg">
<path d="M136.231 146.631C130.897 146.729 125.571 147.17 120.327 147.89C120.098 138.35 136.015 136.953 136.231 146.631ZM147.583 141.432C147.214 141.34 146.986 141.286 146.986 141.286L146.425 141.594C146.807 141.52 147.194 141.465 147.583 141.432ZM141.41 146.648C145.909 146.761 150.392 147.136 154.814 147.816C154.406 140.755 143.009 140.148 141.41 146.648ZM143.055 11.8013C143.008 11.8591 142.969 11.9105 142.925 11.9664C143.389 11.5354 143.917 11.1724 144.507 10.9153C143.936 11.0679 143.422 11.3426 143.055 11.8013ZM137.275 10.1828C137.108 10.2036 136.937 10.242 136.765 10.2887C137.494 10.2697 138.239 10.4478 138.946 10.7692C138.382 10.3742 137.8 10.1171 137.275 10.1828ZM148.435 14.2754C148.259 12.4709 147.111 10.118 144.888 11.479C143.704 12.2032 142.916 13.2728 142.53 14.551C142.613 14.7887 142.677 15.0269 142.717 15.2655C142.777 15.6313 141.932 15.9041 141.554 15.7899C141.244 15.8264 140.968 15.7617 141.004 15.5379C141.043 15.2928 141.099 15.05 141.167 14.8118C140.686 13.3635 139.607 12.1098 138.174 11.5165C135.256 10.3086 133.902 12.938 134.491 15.5827C135.389 19.6222 138.95 22.1337 142.208 24.3243C145.517 21.9996 148.862 18.6635 148.435 14.2754ZM71.0105 155.69L62.0123 161.896C63.1971 161.24 64.344 160.527 65.44 159.789C67.3568 158.498 69.2052 157.121 71.0105 155.69ZM86.55 142.665C86.5195 142.695 86.489 142.724 86.4585 142.754C86.6222 146.026 87.5965 149.11 88.5584 152.205L86.55 142.665ZM49.5412 170.843C48.5159 170.924 47.4939 171.046 46.4728 171.182C48.3365 171.028 50.2875 170.892 51.741 170.795C51.0099 170.778 50.2774 170.785 49.5412 170.843ZM85.1803 143.998C80.862 148.195 76.4873 152.364 71.7287 156.056C67.0187 159.71 61.8528 163.383 56.0315 165.005C53.8095 165.624 51.544 165.96 49.3243 165.868C48.1108 165.899 46.8881 165.816 45.7107 165.564C44.8191 165.373 43.8568 164.856 42.8612 164.109C42.5416 163.932 42.2248 163.745 41.9127 163.538C37.2392 160.44 33.7311 155.584 31.0749 150.713C30.2929 149.279 29.5742 147.816 28.9097 146.33C26.9698 152.593 23.9444 158.466 20.0918 163.775C22.6538 164.95 24.5711 166.706 26.745 168.5C29.8383 171.054 33.4352 171.642 37.3789 171.33C41.4895 171.005 45.5382 170.083 49.654 169.84C52.6145 169.665 55.4355 170.033 58.3521 170.486C61.1124 170.915 63.9588 171.403 66.8102 171.648C69.1312 171.661 72.2615 171.616 75.155 171.367C75.1841 171.361 75.2137 171.357 75.2428 171.352C81.8747 170.058 86.3193 165.764 89.0139 159.676C89.0148 159.674 89.0172 159.671 89.0186 159.669C89.0028 159.644 88.9908 159.616 88.9862 159.584C88.2194 154.252 85.6853 149.359 85.1803 143.998ZM22.1631 166.412C21.4357 165.873 20.6713 165.376 19.8398 164.945C20.3411 165.26 21.185 165.791 22.1631 166.412ZM22.8374 157.318C23.617 155.927 24.3403 154.506 25.0039 153.058L23.9754 154.928L22.8374 157.318ZM36.9715 113.168C36.9678 113.085 36.9618 113.002 36.9585 112.92C36.2066 113.281 35.4593 113.654 34.7097 114.013C35.6119 113.776 36.3791 113.459 36.9715 113.168ZM50.7976 66.6009C50.5137 66.6957 50.3495 66.9301 50.2422 67.2441C50.5803 66.9237 50.9743 66.6652 51.4362 66.5542C51.199 66.5297 50.9812 66.5398 50.7976 66.6009ZM24.6307 115.446L24.9003 115.62C24.9003 115.62 24.9822 115.607 25.1246 115.586C24.9581 115.543 24.7944 115.494 24.6307 115.446ZM70.7322 70.8359C69.2357 69.3002 67.4659 67.898 65.7896 67.5919C66.4037 67.8069 67.0007 68.0677 67.5714 68.3924C68.7649 69.0722 69.7855 69.9138 70.7322 70.8359ZM61.7885 139.645C62.084 139.379 62.4165 139.081 62.7763 138.759C61.16 139.932 59.4772 140.995 57.6709 141.803C59.3704 141.272 60.8373 140.501 61.7885 139.645ZM57.756 63.2287C57.5507 62.6599 57.2505 62.2918 56.8094 62.4389C56.4551 62.5573 56.0713 62.7358 55.6953 62.9355C56.3779 62.6831 57.0998 62.6979 57.756 63.2287ZM36.9442 111.812C36.9451 111.708 36.941 111.604 36.9437 111.501C36.9539 111.077 37.759 110.844 38.1211 111.06C37.9708 110.276 38.1752 108.926 38.1724 108.447C38.1576 106.044 38.147 103.64 38.1031 101.237C38.0212 96.7739 38.4407 91.4739 36.9497 87.1935C36.7444 86.6048 38.0795 86.2307 38.2894 86.8342C39.699 90.8824 39.3563 95.9351 39.4405 100.153C39.4904 102.653 39.5098 105.154 39.5246 107.655C39.5274 108.171 39.3618 110.164 39.4812 110.777C39.6019 110.841 39.668 110.952 39.6254 111.121C39.6097 111.184 39.6 111.251 39.5658 111.306C39.465 111.47 39.2865 111.599 39.089 111.668C39.1075 111.828 39.0076 111.998 38.7181 112.119C38.578 112.178 38.4388 112.241 38.2996 112.302C38.3001 112.332 38.2992 112.362 38.2996 112.392C38.3042 112.389 38.3116 112.383 38.3116 112.383C38.3116 112.383 38.4328 113.784 38.7066 115.968C38.948 117.251 39.2731 118.523 39.6388 119.799C41.1853 125.193 42.9143 130.417 44.9583 135.64C45.7491 137.661 46.6638 140.156 48.5233 141.46C49.0038 141.797 49.5069 142.039 50.0239 142.205C50.5909 142.342 51.1722 142.434 51.7604 142.485C53.5561 142.527 55.417 141.886 57.0535 141.102C61.4976 138.974 65.3701 135.573 69.1631 132.461C72.4908 129.73 75.702 126.806 78.5437 123.562C78.5211 123.547 78.5021 123.53 78.491 123.507C74.6879 115.642 74.3494 107.356 75.0768 98.8087C75.2955 96.2412 75.6988 93.5789 74.7702 91.1034C73.3107 87.2111 70.6216 84.0026 68.8084 80.2901C68.7145 80.0982 69.9973 79.6224 70.1481 79.9317C71.9424 83.6049 74.8474 86.8194 76.1099 90.7441C76.9344 93.3084 76.6403 95.8037 76.4165 98.4498C76.3226 99.5555 76.2482 100.656 76.195 101.753C78.6654 101.723 81.2079 100.123 83.0914 98.0577L85.3116 94.7896C85.5183 94.3465 85.6876 93.9068 85.8101 93.4785C85.8476 93.3477 85.978 93.239 86.1426 93.1604C86.1343 93.1507 86.1237 93.1428 86.1167 93.1312C82.4232 87.3225 78.3828 81.6243 73.9424 76.3603C71.9507 74 70.0075 71.2484 67.3452 69.5878C65.1828 68.2389 62.8318 67.744 60.372 67.5887C60.4432 67.7218 60.5131 67.8569 60.5898 67.984C60.7776 68.2962 59.5031 68.7642 59.2501 68.3434C59.0906 68.0788 58.9463 67.8069 58.8085 67.5309C58.7419 67.5299 58.6763 67.5285 58.6097 67.5276C58.015 67.5216 58.1722 67.1563 58.5089 66.9056C58.4705 66.8238 58.4302 66.7424 58.3919 66.6605C58.2679 66.6245 58.1962 66.6009 58.1962 66.6009C58.1962 66.6009 58.1962 66.4598 58.1888 66.2323C58.014 65.8647 57.8346 65.4989 57.6302 65.1465C57.3449 64.6545 57.0101 64.0921 56.5333 63.7555C55.8734 63.2893 55.3642 63.848 54.942 64.3936C55.2824 65.5257 55.6537 66.6212 55.9455 67.6344C56.1823 68.4562 56.5287 70.1529 54.936 69.5781C53.748 69.1489 52.3394 65.5872 50.9202 67.8573C49.7229 69.7728 50.6469 71.5763 48.9696 72.4041C49.5629 72.5012 48.3591 72.9909 48.071 72.9549C44.8658 72.5622 43.0646 70.33 42.0223 67.6335C41.7411 67.683 41.4854 67.6687 41.4623 67.5461C41.3175 66.7854 40.8569 65.9484 40.0264 65.7759C39.3336 65.6316 38.7024 66.4492 38.5581 67.0735C38.2649 68.3397 38.5318 69.6266 38.5544 70.9044C38.559 71.1485 38.0249 71.3206 37.6295 71.3557C37.5708 71.4075 37.4926 71.4565 37.3895 71.4986C35.4195 72.3083 33.7556 73.4265 32.3355 74.7681C31.5794 75.5769 30.8316 76.4167 30.1514 77.2449C27.3096 81.0707 25.7138 85.9384 24.4698 90.6045C22.6875 97.29 21.4787 104.493 17.7357 110.434C20.6657 112.208 23.4339 114.561 26.9845 114.853C30.759 115.163 33.7076 113.321 36.9442 111.812ZM48.0766 72.0845C48.2875 72.0475 48.4498 71.8806 48.583 71.6369C48.5487 71.6526 48.5215 71.6734 48.4854 71.6877C48.0063 71.8792 47.5698 71.9477 47.1744 71.9421C47.3825 72.0267 47.5989 72.1007 47.8241 72.165C47.9041 72.1285 47.9892 72.0998 48.0766 72.0845ZM44.4742 138.05C44.162 137.379 43.8832 136.691 43.6177 135.998C43.0216 134.443 42.3155 132.903 41.7231 131.337C42.4861 133.897 43.3967 136.254 44.4742 138.05ZM38.2682 111.227C38.2742 111.203 38.2853 111.18 38.2954 111.158C38.2922 111.159 38.2894 111.16 38.2862 111.16C38.2802 111.183 38.2746 111.204 38.2682 111.227ZM36.9747 70.619C37.0459 70.6079 37.1162 70.6042 37.1833 70.6103C37.18 70.5617 37.1763 70.5127 37.1731 70.4641C37.1625 70.318 37.1504 70.17 37.1389 70.0216C36.8693 70.2699 36.5345 70.5816 36.1497 70.9455C36.3592 70.8517 36.5705 70.7587 36.7865 70.6695C36.8494 70.644 36.9123 70.6288 36.9747 70.619ZM39.0289 65.4887C39.5158 65.2834 40.0338 65.1876 40.5291 65.2117C40.0046 64.814 39.4437 64.716 39.0289 65.4887Z" fill="#DAFB59"/>
<path d="M34.0035 40.8576C34.2186 40.9566 33.6354 41.2132 33.6003 41.2252C33.3575 41.3122 32.9912 41.425 32.7392 41.3085C32.0275 40.9806 31.1447 40.3341 31.2788 39.4254C31.399 38.6106 31.9456 38.0769 32.5945 37.62C32.8451 37.4429 33.24 37.3587 33.542 37.3657C33.8107 37.3726 33.8148 37.5049 33.6169 37.6445C33.056 38.0399 32.4446 38.7359 32.6412 39.4865C32.8243 40.182 33.3792 40.5695 34.0035 40.8576ZM58.4543 31.9704C58.9695 33.1038 59.492 34.2396 59.7861 35.4539C60.2009 37.1636 59.5956 38.211 57.6991 38.1518C57.4119 38.1426 56.1652 38.6846 56.832 38.7054C58.3336 38.7526 60.5714 38.5801 61.1536 36.8935C61.7252 35.2384 60.4525 33.0603 59.794 31.6115C59.6423 31.2776 58.3456 31.7308 58.4543 31.9704ZM55.6436 44.86C53.5418 44.8318 51.1102 44.2686 50.5021 41.9661C50.344 41.3672 49.0038 41.7256 49.1624 42.3245C49.8644 44.9826 52.7214 45.7687 55.1714 45.802C55.7934 45.8099 56.55 44.8721 55.6436 44.86ZM51.8293 34.0005C51.8293 32.7616 51.8293 31.5232 51.8293 30.2838C51.8293 29.9236 50.4896 30.1604 50.4896 30.6431C50.4896 31.882 50.4896 33.1205 50.4896 34.3598C50.4896 34.7205 51.8293 34.4833 51.8293 34.0005ZM64.0448 28.7966C64.0448 28.1894 62.6991 28.4586 62.6995 28.9446C62.7 29.9532 62.6704 30.996 62.9677 31.9699C63.125 32.486 64.4614 32.1156 64.3074 31.6115C64.03 30.7014 64.0448 29.7391 64.0448 28.7966ZM49.1758 22.8288C47.9277 23.1419 46.7702 23.5187 45.8185 24.4196C45.5826 24.6425 45.7242 24.9815 45.9951 25.079C46.3387 25.2034 46.692 25.0624 46.9427 24.8251C47.6169 24.1874 48.5543 23.9803 49.426 23.7615C50.2603 23.5525 50.0064 22.6211 49.1758 22.8288ZM64.4221 22.9171C63.5648 22.3622 62.6218 22.0436 61.6382 21.7934C61.3099 21.7101 60.9237 21.7846 60.6907 22.0472C60.4974 22.2655 60.5524 22.5948 60.8581 22.6725C61.7515 22.8991 62.6057 23.1691 63.3844 23.6732C63.8621 23.9826 65.0497 23.3236 64.4221 22.9171ZM115.836 85.9921C115.622 85.5134 115.618 84.9044 116.018 84.5173C116.713 83.8436 117.731 83.9356 118.597 84.1474C118.91 84.2237 118.959 84.5738 118.77 84.793C118.536 85.0658 118.156 85.1282 117.823 85.0468C117.803 85.0422 117.802 85.0417 117.792 85.039C117.76 85.0325 117.729 85.0265 117.697 85.02C117.645 85.0103 117.593 85.0011 117.542 84.9937C117.447 84.9802 117.353 84.9682 117.258 84.9641C117.257 84.9641 117.257 84.9641 117.255 84.9641C117.218 84.965 117.181 84.9659 117.145 84.9687C117.131 84.9701 117.117 84.9719 117.102 84.9733C117.09 84.9872 117.079 84.9969 117.078 84.99C117.073 85.0006 117.066 85.0112 117.062 85.0228C117.057 85.0459 117.053 85.069 117.051 85.0921C117.048 85.1259 117.049 85.1597 117.049 85.1944C117.053 85.2249 117.058 85.2716 117.063 85.2905C117.074 85.3437 117.087 85.3964 117.104 85.4482C117.122 85.5014 117.142 85.5546 117.164 85.6064C117.166 85.6105 117.169 85.617 117.173 85.623C117.182 85.6401 117.191 85.6577 117.2 85.6744C117.261 85.7798 117.329 85.8802 117.407 85.9736C117.452 86.0277 117.499 86.0813 117.549 86.1313C117.57 86.1498 117.592 86.1687 117.614 86.1858C117.699 86.2538 117.79 86.3144 117.886 86.3671C117.917 86.381 117.956 86.3981 117.974 86.4046C117.995 86.412 118.017 86.4189 118.04 86.4254C118.066 86.43 118.093 86.4319 118.119 86.4346C118.127 86.4342 118.135 86.4337 118.143 86.4337C118.153 86.4286 118.164 86.424 118.173 86.4189C118.204 86.3949 118.259 86.3463 118.28 86.3297C118.319 86.288 118.359 86.2469 118.394 86.202C118.413 86.1775 118.431 86.1525 118.449 86.1271C118.463 86.1058 118.484 86.073 118.489 86.0642C118.54 85.9773 118.588 85.8876 118.63 85.796C118.721 85.5967 118.8 85.389 118.859 85.1805C118.953 84.8489 119.262 84.6662 119.598 84.6403C119.818 84.6237 120.31 84.7453 120.216 85.0764C120.019 85.7719 119.744 86.4453 119.186 86.929C118.033 87.9269 116.406 87.2666 115.836 85.9921ZM117.114 84.9687C117.208 84.9534 117.159 84.9599 117.114 84.9687ZM92.9808 84.9312C94.5415 84.9506 96.0759 85.199 97.6122 85.4547C97.9766 85.5153 99.1822 84.9234 98.4529 84.8017C96.8177 84.5298 95.1871 84.2838 93.5265 84.263C93.0844 84.2574 92.0795 84.9201 92.9808 84.9312ZM129.266 89.1089C128.945 89.1089 128.593 89.1945 128.318 89.3628C128.107 89.4923 128.135 89.6426 128.393 89.6426C129.986 89.6426 131.58 89.6426 133.172 89.6426C133.493 89.6426 133.845 89.557 134.12 89.3887C134.332 89.2592 134.303 89.1089 134.045 89.1089C132.452 89.1089 130.859 89.1089 129.266 89.1089ZM102.142 75.2185C102.276 75.8151 103.618 75.465 103.481 74.8601C103.176 73.5047 102.387 72.3925 101.568 71.2989C101.218 70.8318 99.9373 71.3433 100.338 71.8778C101.112 72.9109 101.852 73.938 102.142 75.2185ZM137.726 80.3947C135.934 80.9237 134.185 81.6562 132.334 81.9572C131.585 82.0789 131.325 83.1365 132.228 82.9894C134.213 82.6671 136.067 81.9332 137.987 81.3663C138.81 81.1235 138.556 80.1496 137.726 80.3947ZM119.084 138.6C115.067 140.372 110.605 142.024 106.132 141.651C101.241 141.244 97.4263 138.559 94.2433 134.978C91.8755 137.419 89.469 139.822 87.0351 142.193C86.8733 142.35 86.7114 142.508 86.5501 142.665C86.5195 142.695 86.489 142.724 86.4585 142.754C86.6222 146.026 87.5966 149.111 88.5584 152.205C89.2752 154.51 89.9809 156.823 90.3259 159.226C90.337 159.302 90.3125 159.374 90.2676 159.44C90.3518 159.533 90.3763 159.666 90.2981 159.842C87.7168 165.672 83.325 170.426 76.9636 171.973C71.332 173.343 65.5153 172.654 59.862 171.786C57.1632 171.372 54.4666 170.862 51.741 170.796C51.0099 170.778 50.2769 170.786 49.5412 170.844C48.5159 170.925 47.4939 171.046 46.4728 171.183C43.1599 171.628 39.8618 172.258 36.5234 172.378C33.204 172.498 29.6875 172.232 26.9096 170.213C25.2213 168.987 23.7729 167.605 22.1627 166.412C21.4352 165.873 20.6708 165.376 19.8393 164.945C19.5119 164.776 19.178 164.612 18.8266 164.466C18.5223 164.341 18.4557 164.06 18.6481 163.8C20.1769 161.73 21.5781 159.564 22.8374 157.318C23.617 155.927 24.3403 154.506 25.0039 153.058C26.2567 150.323 27.2981 147.492 28.0893 144.586C28.0972 144.557 28.1101 144.53 28.1231 144.504C24.3093 135.219 22.6552 125.093 22.6121 115.07C22.6117 114.959 22.7093 114.863 22.8503 114.787C20.607 113.795 18.6134 112.343 16.3969 111.039C16.1555 110.897 16.2226 110.618 16.346 110.431C17.3176 108.953 18.1214 107.342 18.8146 105.642L18.7512 105.587C18.7207 105.581 18.6929 105.573 18.6684 105.561C14.0662 103.257 8.06969 103.002 4.02054 99.6536C2.25678 98.195 1.19177 96.4128 0.651171 94.477C0.0680299 93.289 -0.192786 92.0552 0.159596 90.8801C0.176244 90.8241 0.193816 90.7663 0.210927 90.7095C0.259021 88.5896 0.744124 86.4184 1.48218 84.3781C2.61841 81.2368 4.41268 78.0459 4.98334 74.7367C5.53319 71.5463 4.8349 68.5469 4.35396 65.4036C3.92065 62.5707 3.71717 59.624 4.90796 56.9363C5.87725 54.7489 7.24978 52.8136 8.78741 50.9897C12.2016 46.9406 16.0344 43.1865 17.3759 37.8961C19.7811 28.4114 18.7091 12.7128 26.5882 6.14521C27.1182 5.51166 27.6449 5.0446 28.1374 4.86563C28.3784 4.77823 28.6443 4.69499 28.9277 4.61545C30.7294 3.71045 32.8863 3.17678 35.482 3.11713C36.9761 1.7876 38.6992 0.957514 40.5545 0.52143C41.219 0.168124 41.7633 -0.0515351 42.0103 0.0104323C42.2826 0.0784115 42.863 0.0876623 43.6843 0.141768C49.8011 0.00211032 56.6424 3.03065 61.1822 5.8252C61.6049 6.08555 62.0054 6.35562 62.3948 6.63216C63.3127 7.15796 64.1419 7.8174 64.8934 8.74414C67.0913 10.9754 68.5564 13.683 69.46 17.0616C70.5856 21.2717 71.1738 26.304 69.411 30.4498C69.441 31.384 69.447 32.3209 69.4369 33.2569C69.3952 37.2075 69.7731 41.5531 68.5957 45.3845C67.724 48.222 66.1248 50.7742 63.5985 52.4182C62.1936 53.3325 60.6537 54.0465 59.031 54.4807C57.5932 54.8659 54.9615 55.0967 54.3894 56.7582C53.6671 58.8573 54.0578 61.2287 54.6858 63.5067C55.0026 63.2699 55.3425 63.0669 55.6944 62.9369C56.3775 62.684 57.0989 62.6988 57.7551 63.2301C57.7639 63.2371 57.7731 63.2417 57.7819 63.2491C58.8275 64.1204 59.3542 65.4425 59.9276 66.6915C61.8972 66.7438 63.9241 66.9417 65.7886 67.5928C66.4028 67.8079 66.9998 68.0687 67.5704 68.3933C68.7645 69.0731 69.7851 69.9148 70.7312 70.8364C71.9096 71.9837 72.9709 73.2568 74.0784 74.5253C78.9761 80.1315 83.3615 86.301 87.3533 92.5787C87.4907 92.7951 87.3501 92.999 87.1193 93.1359C87.1586 93.1831 87.1757 93.2436 87.1526 93.3232C85.916 97.653 80.9443 102.259 76.1636 102.54C75.9023 109.386 76.5927 116.04 79.5015 122.427C80.1558 121.637 80.7959 120.836 81.4012 120.007C83.6325 116.952 85.8545 113.623 86.7133 109.885C87.3029 107.316 87.4116 104.743 87.5901 102.125C87.8014 99.032 88.6421 94.2911 92.2871 93.3579C94.5573 92.777 95.0877 96.4627 95.3212 97.8972C95.4012 98.3879 95.4692 98.8794 95.533 99.3715C99.572 93.0901 102.954 86.2631 107.483 80.3105C107.444 80.255 107.442 80.1782 107.498 80.077C109.327 76.7515 112.829 75.8696 116.409 75.9233C119.982 75.9769 123.949 75.8604 127.031 77.9862C130.979 80.7077 129.092 84.5113 127.444 88.1706C125.973 91.4392 123.839 94.3618 122.018 97.438C121.941 97.5666 121.723 97.6683 121.487 97.7229C121.599 97.728 121.71 97.7312 121.822 97.7414C121.88 97.7469 121.921 97.7566 121.955 97.7691C122.342 97.5347 123.237 97.4921 123.13 97.6868C120.744 102.04 118.1 106.246 115.204 110.279C111.985 114.76 108.553 119.076 104.965 123.261C108.902 129.362 118.299 120.535 121.53 117.626C126.337 113.296 131.008 108.507 134.842 103.276C136.822 100.573 138.592 96.8382 141.442 94.9533C143.281 93.7371 146.236 93.732 145.431 96.5663C144.951 98.2561 144.104 99.8006 143.563 101.467C143.201 102.58 142.915 103.71 142.655 104.846C145.894 101.446 151.384 96.5751 153.904 100.002C154.12 100.296 154.241 100.611 154.29 100.94C155.054 101.012 157.44 102.157 157.789 102.674C158.519 103.755 157.852 105.567 157.165 106.887C159.147 108.19 159.059 110.062 158.03 112.002C158.35 111.834 158.83 111.764 159.036 111.962C161.239 114.092 157.504 117.889 156.071 119.316C152.962 122.414 149.305 125.131 145.303 126.985C142.304 128.652 139.164 130.074 135.983 131.383C130.308 133.719 124.698 136.122 119.084 138.6ZM95.7226 100.975C95.7924 101.623 95.8581 102.271 95.9233 102.919C95.9816 103.499 96.0311 104.082 96.1212 104.658C96.2637 105.57 96.346 105.202 95.8909 105.279C95.9612 105.305 96.0223 105.345 96.0699 105.402C96.4209 105.47 96.6716 105.681 96.3825 105.928C96.7969 106.621 97.4586 107.538 98.1995 107.322C99.0726 107.068 99.7371 106.228 100.256 105.525C101.695 103.576 102.777 101.378 103.863 99.2198C105.251 96.459 106.807 91.5469 110.249 90.7252C112.097 90.284 112.908 91.0447 113.174 92.229C114.13 91.8928 115.29 91.6824 115.785 92.4672C116.132 93.0171 116.157 93.7398 116.031 94.4936C118.553 94.0908 118.056 96.8271 117.383 98.848C118.385 98.164 119.602 97.777 120.85 97.7206C120.734 97.6702 120.685 97.5758 120.775 97.4232C122.277 94.8862 124.051 92.4617 125.396 89.8354C126.086 88.4883 126.66 87.0867 127.185 85.6679C127.76 84.1136 128.749 82.2139 127.823 80.5907C126.018 77.4272 122.028 76.9268 118.765 76.7654C115.635 76.61 112.291 76.3742 110.032 78.4381C110.174 78.5574 110.209 78.7396 110.015 78.9736C104.518 85.5995 100.793 93.5706 96.0662 100.73C95.9862 100.851 95.8613 100.93 95.7226 100.975ZM54.9425 64.3941C55.2829 65.5262 55.6542 66.6217 55.946 67.6349C56.1828 68.4567 56.5291 70.1534 54.9365 69.5786C53.7485 69.1494 52.3399 65.5877 50.9206 67.8578C49.7234 69.7733 50.6473 71.5768 48.97 72.4046C49.5634 72.5017 48.3596 72.9914 48.0715 72.9553C44.8663 72.5627 43.0651 70.3305 42.0228 67.634C41.7416 67.6835 41.4859 67.6691 41.4627 67.5466C41.318 66.7859 40.8574 65.9489 40.0268 65.7764C39.3341 65.6321 38.7029 66.4497 38.5586 67.074C38.2654 68.3401 38.5322 69.6271 38.5549 70.9049C38.5595 71.149 38.0254 71.3211 37.63 71.3562C37.5713 71.408 37.4931 71.457 37.39 71.4991C35.42 72.3088 33.7561 73.427 32.336 74.7686C31.5327 75.5279 30.8103 76.3594 30.1518 77.2454C27.3101 81.0712 25.7142 85.9389 24.4702 90.6049C22.688 97.2905 21.4792 104.494 17.7361 110.434C20.6662 112.209 23.4344 114.562 26.985 114.854C30.7586 115.164 33.7071 113.322 36.9437 111.812C36.9447 111.709 36.9405 111.605 36.9433 111.501C36.9534 111.078 37.7586 110.845 38.1207 111.061C37.9704 110.276 38.1748 108.926 38.172 108.447C38.1572 106.044 38.1466 103.641 38.1026 101.238C38.0208 96.7744 38.4402 91.4743 36.9493 87.194C36.744 86.6053 38.079 86.2311 38.289 86.8346C39.6985 90.8829 39.3558 95.9355 39.44 100.153C39.49 102.653 39.5094 105.154 39.5242 107.655C39.5269 108.172 39.3614 110.165 39.4807 110.777C39.6014 110.841 39.6675 110.952 39.625 111.121C39.6093 111.184 39.5995 111.251 39.5653 111.307C39.4645 111.471 39.286 111.599 39.0885 111.669C39.107 111.828 39.0072 111.998 38.7177 112.12C38.5776 112.178 38.4384 112.241 38.2992 112.303C38.2996 112.332 38.2987 112.363 38.2992 112.393C38.3348 113.604 38.4846 114.791 38.7061 115.968C38.9475 117.252 39.2726 118.524 39.6384 119.8C41.1848 125.194 42.9139 130.417 44.9579 135.64C45.7487 137.662 46.6634 140.156 48.5229 141.46C49.0033 141.797 49.5065 142.04 50.0235 142.205C50.5886 142.387 51.1708 142.472 51.76 142.486C53.5556 142.528 55.4165 141.886 57.0531 141.103C61.4972 138.975 65.3697 135.574 69.1626 132.461C72.4904 129.73 75.7016 126.806 78.5433 123.562C78.5206 123.548 78.5017 123.53 78.4906 123.507C74.6874 115.643 74.3489 107.357 75.0764 98.8092C75.2951 96.2417 75.6984 93.5794 74.7698 91.1039C73.3103 87.2115 70.6212 84.0031 68.8079 80.2906C68.7141 80.0987 69.9969 79.6228 70.1476 79.9322C71.9419 83.6054 74.847 86.8198 76.1095 90.7446C76.934 93.3089 76.6399 95.8042 76.4161 98.4503C76.3222 99.556 76.2477 100.657 76.1946 101.753C78.6649 101.724 81.2074 100.124 83.091 98.0581C84.0223 97.0375 84.7909 95.9041 85.3112 94.7901C85.5179 94.347 85.6871 93.9073 85.8097 93.479C85.8471 93.3482 85.9775 93.2395 86.1422 93.1609C86.1338 93.1512 86.1232 93.1433 86.1163 93.1317C82.4227 87.323 78.3824 81.6248 73.942 76.3608C71.9502 74.0005 70.0071 71.2489 67.3448 69.5883C65.1824 68.2393 62.8313 67.7445 60.3716 67.5891C60.4428 67.7223 60.5126 67.8574 60.5894 67.9845C60.7771 68.2967 59.5027 68.7647 59.2497 68.3438C59.0902 68.0793 58.9459 67.8074 58.8081 67.5313C58.7415 67.5304 58.6758 67.529 58.6092 67.5281C58.0145 67.5221 58.1717 67.1567 58.5084 66.9061C58.47 66.8243 58.4298 66.7429 58.3914 66.661C58.3244 66.5177 58.2564 66.3757 58.1884 66.2328C58.0136 65.8651 57.8342 65.4994 57.6298 65.147C57.3444 64.6549 57.0096 64.0926 56.5328 63.7559C55.8739 63.2898 55.3647 63.8484 54.9425 64.3941ZM38.2955 111.158C38.2922 111.159 38.2894 111.16 38.2862 111.16C38.2802 111.183 38.2747 111.204 38.2682 111.227C38.2747 111.203 38.2857 111.181 38.2955 111.158ZM46.7351 16.5201C48.6329 17.7951 51.0885 18.0522 53.6731 18.0342C51.8978 17.8927 50.5706 17.8127 50.3352 17.8127C49.9606 17.8131 48.2403 17.1403 46.7351 16.5201ZM38.2534 35.5205L37.4728 35.2602C37.6369 35.3605 37.7983 35.4706 37.9574 35.5871C38.0605 35.5552 38.1618 35.5312 38.2534 35.5205ZM39.0289 65.4887C39.5158 65.2834 40.0338 65.1877 40.5291 65.2117C40.0046 64.814 39.4437 64.716 39.0289 65.4887ZM36.9747 70.6191C37.0459 70.608 37.1162 70.6043 37.1833 70.6103C37.18 70.5617 37.1763 70.5127 37.1731 70.4641C37.1625 70.318 37.1505 70.17 37.1389 70.0216C36.8693 70.2699 36.5345 70.5816 36.1497 70.9456C36.3592 70.8517 36.5705 70.7587 36.7865 70.6695C36.8494 70.644 36.9123 70.6288 36.9747 70.6191ZM41.3296 65.368C41.2745 65.1368 41.2237 64.9046 41.176 64.673C41.2001 64.9236 41.2213 65.146 41.2398 65.338C41.2699 65.3481 41.3 65.3574 41.3296 65.368ZM68.1004 32.8458C68.099 32.559 68.0962 32.2728 68.0916 31.9865C67.748 32.0365 67.428 32.0115 67.4886 31.9047C67.7032 31.5287 67.8881 31.1393 68.0583 30.7426C67.9635 28.0849 67.6773 25.4615 66.9452 22.9324C65.0682 17.5787 58.2984 18.9234 53.853 18.9521C50.1914 18.9752 46.4733 18.5318 44.1357 15.7973C44.7701 21.5501 43.5289 38.6092 37.723 36.2221C37.4362 36.3247 37.119 36.3761 36.9877 36.2692C34.9857 34.6442 31.6649 33.9441 30.1481 36.641C29.3943 37.9807 28.9948 39.5956 29.4341 41.1161C30.2633 43.987 32.8127 43.9389 35.2776 44.5326C36.8217 44.904 39.2333 45.5495 40.0398 47.1075C40.8287 48.6322 41.0794 50.7118 41.3462 52.3896C42.2003 57.7548 40.832 69.3686 47.1734 71.9426C47.3815 72.0272 47.598 72.1012 47.8232 72.1655C47.9036 72.1289 47.9887 72.0998 48.0761 72.0845C48.287 72.0475 48.4493 71.8806 48.5825 71.6369C49.0986 70.6972 49.1601 68.5635 49.6845 67.8754C49.8519 67.6553 50.0369 67.4388 50.2418 67.2442C50.5798 66.9237 50.9738 66.6652 51.4358 66.5542C51.4427 66.5523 51.4492 66.5496 51.4566 66.5477C52.6474 66.2739 53.6107 66.667 54.4629 67.3806C54.2345 66.5787 53.9797 65.7828 53.724 64.999C53.4719 64.9893 53.3101 64.9047 53.4599 64.7137C53.4988 64.6642 53.5418 64.6128 53.5843 64.562C52.8735 62.3085 51.9329 58.6006 53.2513 56.5589C54.6368 54.4137 57.744 54.4044 59.8879 53.5734C63.5402 52.1569 66.2331 49.4008 67.2629 45.5764C68.3612 41.4962 68.1198 37.0401 68.1004 32.8458ZM52.9309 2.6963C52.991 2.72682 53.0488 2.75226 53.1094 2.7837C54.1716 3.33586 55.1709 3.77102 56.1129 4.14051C55.0882 3.62581 54.0222 3.13609 52.9309 2.6963ZM31.1133 4.12896C32.1921 3.93288 33.2927 3.78119 34.176 3.67391C33.1443 3.71368 32.101 3.82976 31.1133 4.12896ZM20.8932 23.3259C21.1226 21.835 21.3266 20.4199 21.4995 19.1695C21.253 20.5947 21.0625 21.9987 20.8932 23.3259ZM85.1803 143.998C80.862 148.195 76.4873 152.364 71.7287 156.056C67.0187 159.71 61.8528 163.383 56.0316 165.005C53.8095 165.624 51.544 165.96 49.3243 165.868C47.0916 165.775 44.9066 165.243 42.8612 164.108C42.5416 163.931 42.2248 163.744 41.9127 163.537C37.2392 160.439 33.7311 155.584 31.0749 150.713C30.2929 149.278 29.5742 147.815 28.9097 146.329C26.9698 152.593 23.9445 158.466 20.0918 163.774C22.6538 164.95 24.5711 166.705 26.745 168.5C29.8383 171.053 33.4352 171.641 37.3789 171.33C41.4896 171.005 45.5382 170.082 49.654 169.839C52.6146 169.664 55.4355 170.033 58.3521 170.486C61.1124 170.915 63.9588 171.403 66.8102 171.647C69.6121 171.887 72.4187 171.888 75.155 171.366C75.1841 171.361 75.2137 171.356 75.2428 171.351C81.8747 170.057 86.3193 165.763 89.0139 159.676C89.0149 159.673 89.0172 159.671 89.0186 159.668C89.0028 159.643 88.9908 159.616 88.9862 159.584C88.2195 154.252 85.6853 149.359 85.1803 143.998ZM96.9745 130.924C99.2168 128.506 101.426 126.047 103.584 123.541C103.582 123.496 103.633 123.44 103.721 123.382C110.465 115.532 116.677 107.206 121.672 98.1437C121.423 98.2672 121.114 98.3666 120.971 98.3532C118.784 98.1479 117.092 99.6064 116.511 101.641C116.477 101.76 116.322 101.861 116.128 101.932C114.776 104.942 113.176 107.841 111.539 110.703C111.319 111.087 109.973 111.226 110.291 110.671C111.74 108.137 113.161 105.579 114.403 102.936C114.744 102.211 117.94 95.0537 115.859 95.2571C115.607 96.1668 115.216 97.0537 114.968 97.6743C113.172 102.171 110.465 106.182 108.495 110.577C108.333 110.94 107.048 111.068 107.169 110.797C108.632 107.533 110.621 104.497 112.157 101.261C112.661 100.2 116.559 91.7412 113.257 92.7664C113.384 94.151 112.966 95.8944 112.603 97.0417C111.267 101.267 109.181 106.209 105.927 109.345C105.499 109.757 104.202 109.529 104.805 108.947C108.073 105.799 110.397 100.547 111.515 96.2116C111.634 95.751 112.058 94.1917 112.027 93.0046C111.784 92.9754 111.676 92.8857 112.008 92.7183C111.944 92.082 111.714 91.6043 111.166 91.5678C109.273 91.442 108.216 93.5405 107.448 94.9232C105.865 97.771 99.4379 114.116 94.8865 106.051C94.7973 105.892 94.8167 105.742 94.8981 105.615C94.6215 104.915 94.6345 103.804 94.5827 103.279C94.3445 100.873 94.5443 96.3739 92.7542 94.4895C91.2212 92.876 89.1809 99.3914 89.0856 100.313C88.8327 102.762 88.8831 105.246 88.478 107.679C86.6444 118.68 77.0172 127.47 68.6803 134.092C66.7455 135.629 64.8138 137.281 62.7758 138.76C61.1596 139.932 59.4768 140.996 57.6705 141.804C57.4341 141.91 57.1969 142.012 56.9564 142.109C53.5311 143.486 49.1273 144.447 46.41 141.199C45.6104 140.244 44.9953 139.172 44.4737 138.051C44.1616 137.38 43.8827 136.691 43.6173 135.999C43.0212 134.443 42.315 132.903 41.7226 131.338C41.5524 130.888 41.3901 130.437 41.2445 129.981C39.5316 124.631 37.2476 118.876 36.9706 113.168C36.9669 113.085 36.9609 113.002 36.9576 112.92C36.2057 113.281 35.4584 113.655 34.7087 114.013C32.1371 115.243 29.5275 116.276 26.53 115.862C26.0453 115.795 25.5783 115.701 25.1241 115.586C24.9572 115.543 24.7935 115.494 24.6298 115.446C24.4032 115.378 24.1798 115.305 23.9597 115.228C24.0762 127.273 26.4592 139.776 32.4132 150.353C35.2382 155.372 38.9863 161.03 44.2901 163.721C50.1992 166.719 56.5167 164.937 62.0109 161.896C63.1957 161.24 64.3426 160.526 65.4386 159.788C67.3554 158.498 69.2043 157.12 71.0092 155.69C74.8609 152.638 78.4966 149.32 82.0454 145.91C83.0692 144.926 84.0894 143.939 85.1091 142.949C85.104 142.83 85.0934 142.712 85.0906 142.593C85.0827 142.245 85.6682 142.012 86.0673 142.019C89.7825 138.398 93.4479 134.726 96.9745 130.924ZM107.954 140.981C113.012 140.842 117.474 138.557 121.971 136.492C129.02 133.255 136.574 130.863 143.439 127.22C143.392 127.086 143.482 126.924 143.807 126.787C144.672 126.421 145.524 126.005 146.362 125.554C147.766 124.698 149.137 123.78 150.453 122.765C150.543 122.696 150.719 122.643 150.909 122.615C152.058 121.741 153.155 120.807 154.178 119.824C155.479 118.573 159.923 114.561 157.799 112.509C157.785 112.495 157.778 112.481 157.769 112.468C155.912 115.555 151.933 118.71 150.357 119.936C149.872 120.313 148.769 119.961 149.489 119.402C151.682 117.696 159.989 111.106 156.552 107.953C154.182 111.702 150.846 114.764 147.44 117.561C146.948 117.965 145.861 117.576 146.564 116.998C149.871 114.282 153.533 111.155 155.573 107.326C156.701 105.209 157.489 102.743 154.491 102.045C154.416 102.027 154.325 102.012 154.226 101.996C153.774 103.824 151.782 105.798 150.846 106.756C148.691 108.963 145.537 110.928 143.906 113.568C143.686 113.924 142.343 114.075 142.663 113.557C143.767 111.771 145.739 110.406 147.258 108.999C149.172 107.227 152.094 104.961 152.775 102.302C152.833 102.075 152.859 101.807 152.852 101.529C152.758 101.427 152.699 101.303 152.697 101.144C152.696 101.061 152.727 100.987 152.776 100.921C152.6 100.171 152.12 99.5329 151.199 99.6915C149.625 99.9625 148.173 101.137 146.978 102.128C145.295 103.523 143.712 105.049 142.252 106.679C142.132 107.233 142.012 107.787 141.886 108.34C140.961 112.417 139.711 116.438 136.101 118.9C135.858 119.065 134.511 119.23 135.071 118.848C138.862 116.264 139.895 111.737 140.803 107.47C140.543 107.46 140.378 107.374 140.54 107.187C140.66 107.049 140.803 106.883 140.968 106.695C141.045 106.334 141.123 105.974 141.202 105.62C141.668 103.539 142.25 101.547 143.079 99.5814C143.521 98.5345 144.707 96.4521 144.205 95.2895C143.14 92.8233 138.661 99.5278 138.164 100.255C137.432 101.327 136.678 102.382 135.89 103.414C134.307 105.489 132.604 107.476 130.85 109.409C126.169 114.566 121.034 119.91 114.97 123.452C111.843 125.277 106.882 127.47 104.102 124.262C101.165 127.646 98.1282 130.946 95.0183 134.175C95.1496 134.18 95.2616 134.211 95.3245 134.283C98.5796 138.002 102.778 141.124 107.954 140.981ZM121.376 151.442C121.661 152.515 122.142 153.504 122.748 154.432C122.958 154.753 124.26 154.335 124 153.935C123.426 153.057 122.986 152.098 122.716 151.084C122.61 150.682 121.269 151.04 121.376 151.442ZM125.395 158.918C126.744 160.209 128.425 160.979 130.174 161.573C130.443 161.664 130.775 161.569 131.032 161.479C131.054 161.472 131.649 161.201 131.44 161.13C129.691 160.536 128.01 159.766 126.661 158.475C126.422 158.246 125.224 158.755 125.395 158.918ZM164.537 136.791C160.946 139.763 159.623 144.539 156.793 148.143C157.234 148.22 157.677 148.292 158.116 148.376C158.361 148.423 158.485 148.529 158.526 148.655C158.741 148.703 158.889 148.844 158.834 149.098C156.957 157.86 148.883 165.948 139.637 166.117C139.826 166.984 139.858 167.922 139.91 168.765C139.984 169.976 140.079 171.245 139.876 172.449C139.778 173.035 138.409 173.219 138.52 172.558C138.734 171.291 138.642 169.928 138.537 168.656C138.451 167.628 138.413 166.474 137.997 165.514C137.769 164.987 138.958 164.612 139.291 165.08C139.312 165.079 139.331 165.075 139.352 165.075C148.019 165.124 155.613 157.5 157.435 149.333C144.251 146.858 130.438 147.247 117.229 149.334C119.117 157.341 126.458 164.932 134.954 165.253C135.2 164.736 136.524 164.714 136.225 165.405C135.789 166.411 135.766 167.689 135.699 168.766C135.628 169.934 135.529 171.163 135.725 172.324C135.83 172.949 134.487 173.288 134.385 172.683C134.176 171.442 134.254 170.123 134.344 168.874C134.412 167.919 134.455 166.876 134.72 165.927C125.627 165.792 117.656 157.978 115.801 149.32C115.755 149.105 116.089 148.913 116.435 148.83C116.534 148.62 116.757 148.421 117.058 148.372C117.699 148.27 118.343 148.175 118.987 148.081C118.955 141.866 125.381 138.603 130.689 139.242C130.691 139.237 130.692 139.232 130.694 139.227C131.992 136.561 135.606 134.692 137.923 136.974C140.624 134.029 146.765 133.097 148.952 136.927C149.126 137.234 148.708 137.51 148.305 137.589C150.501 137.679 152.398 138.784 153.496 140.812C155.232 138.07 157.296 135.442 159.825 133.405C160.116 133.171 160.547 133.214 160.788 133.389C160.891 133.388 160.991 133.398 161.081 133.435C162.463 134.012 163.7 134.986 164.338 136.362C164.65 136.397 164.845 136.535 164.537 136.791ZM141.41 146.648C145.909 146.761 150.392 147.136 154.814 147.816C154.406 140.755 143.009 140.148 141.41 146.648ZM131.941 139.471C135.079 140.256 137.556 142.56 137.584 146.608C138.433 146.601 139.282 146.605 140.132 146.617C140.918 143.86 143.53 142.152 146.425 141.594C146.808 141.521 147.194 141.466 147.583 141.433C149.352 141.282 151.147 141.555 152.637 142.273C151.519 139.103 148.647 137.201 145.124 138.724C144.578 138.96 143.765 138.69 144.632 138.315C145.731 137.84 146.823 137.597 147.858 137.574C147.792 137.549 147.74 137.512 147.708 137.457C145.805 134.124 140.547 134.755 138.601 137.743C138.54 137.837 138.411 137.914 138.257 137.969C137.968 138.242 137.352 138.353 137.098 138.025C135.453 135.894 132.936 137.444 131.982 139.405C131.971 139.429 131.956 139.45 131.941 139.471ZM136.231 146.631C136.015 136.953 120.098 138.35 120.327 147.89C125.571 147.17 130.897 146.729 136.231 146.631ZM157.721 144.809C157.603 144.761 157.512 144.675 157.483 144.54C157.067 142.62 156.356 140.882 156.174 138.979C155.472 139.938 154.817 140.929 154.207 141.928C154.164 141.999 154.108 142.055 154.043 142.101C154.147 142.425 154.24 142.761 154.31 143.119C154.324 143.19 154.291 143.259 154.229 143.322C155.299 144.278 156.01 145.604 156.141 147.305C156.715 146.508 157.231 145.668 157.721 144.809ZM160.202 140.427C160.17 140.39 160.146 140.346 160.138 140.291C159.905 138.67 159.636 137.077 159.113 135.534C158.548 136.092 158.01 136.68 157.497 137.292C157.503 137.326 157.506 137.363 157.504 137.404C157.364 139.494 158.072 141.298 158.592 143.239C159.112 142.288 159.634 141.34 160.202 140.427ZM163.076 136.867C163.071 136.857 163.063 136.85 163.059 136.84C162.564 135.689 161.599 134.835 160.498 134.275C160.401 134.355 160.307 134.439 160.212 134.52C160.76 135.911 161.07 137.347 161.307 138.811C161.834 138.116 162.417 137.462 163.076 136.867ZM120.192 18.6802C120.055 21.9645 119.77 25.3815 120.868 28.5413C123.401 35.8373 130.802 31.0529 135.949 31.5343C136.236 31.5611 137.489 31.0478 136.817 30.9849C134.671 30.7842 132.636 31.2101 130.559 31.7105C126.96 32.5775 124.22 32.2002 122.418 28.6801C120.151 24.2494 121.883 18.2996 121.534 13.5457C121.157 8.39268 122.29 4.36295 127.522 2.4082C132.098 0.698085 137.454 0.905264 142.361 1.17302C142.428 1.23221 142.535 1.27614 142.697 1.29279C145.366 1.57025 148.018 1.61881 150.699 1.52956C152.753 1.46112 154.864 1.28863 156.75 2.25837C161.264 4.5803 160.859 11.3384 160.839 15.5906C160.82 19.8872 162.444 25.6529 159.717 29.3987C157.031 33.0885 150.084 32.4564 146.33 31.1708C146.001 31.0584 145.514 31.2915 145.331 31.5574C145.079 31.5666 144.811 31.6513 144.682 31.8104C142.099 34.9961 139.249 37.9502 136.599 41.0777C136.662 40.138 136.905 39.0975 136.973 38.3669C137.178 36.1527 137.399 33.9404 137.588 31.7243C137.641 31.0954 136.284 31.3234 136.238 31.8571C136.034 34.259 135.794 36.6581 135.571 39.0587C135.474 40.1052 135.031 41.7298 135.359 42.7666C135.504 43.2285 136.355 43.02 136.579 42.7448C139.529 39.1054 142.828 35.7679 145.779 32.1285C149.773 33.4372 155.193 33.6805 158.871 31.4256C163.832 28.3832 162.45 21.8068 162.216 16.8901C161.998 12.3244 163.029 5.8312 159.101 2.44381C157.472 1.0389 155.618 0.570454 153.507 0.520047C150.04 0.43727 146.635 0.701787 143.167 0.340619C142.925 0.315185 142.671 0.430334 142.495 0.588952C134.253 0.193101 121.483 0.215758 120.082 9.95297C119.677 12.7716 120.311 15.8172 120.192 18.6802ZM141.422 25.1424C138.678 23.3014 135.913 21.398 134.148 18.5322C132.911 16.5243 132.386 13.3344 134.156 11.467C134.917 10.6637 135.827 10.3132 136.765 10.2887C137.494 10.2697 138.239 10.4478 138.946 10.7692C140.106 11.2973 141.16 12.2069 141.867 13.2511C142.159 12.7771 142.516 12.3452 142.925 11.9669C143.389 11.5359 143.917 11.1729 144.507 10.9158C144.52 10.9102 144.532 10.9024 144.545 10.8968C145.785 10.3678 147.697 9.99736 148.736 11.1623C150.63 13.2867 149.78 16.8443 148.594 19.0871C147.332 21.4724 145.098 23.2598 142.91 24.7521C142.854 24.79 142.765 24.8214 142.66 24.8469C142.436 25.0767 141.7 25.3283 141.422 25.1424ZM134.491 15.5823C135.389 19.6217 138.95 22.1333 142.208 24.3239C145.517 21.9996 148.862 18.6636 148.435 14.2754C148.259 12.471 147.111 10.1181 144.888 11.479C143.704 12.2032 142.916 13.2729 142.53 14.551C142.613 14.7887 142.677 15.0269 142.717 15.2655C142.777 15.6313 141.932 15.9041 141.554 15.7899C141.244 15.8265 140.968 15.7617 141.004 15.5379C141.043 15.2928 141.099 15.05 141.167 14.8119C140.686 13.3635 139.607 12.1098 138.174 11.5165C135.256 10.3081 133.902 12.9376 134.491 15.5823Z" fill="#1B1E27"/>
</svg>
