<svg width="231" height="189" viewBox="0 0 231 189" fill="none" xmlns="http://www.w3.org/2000/svg">
<path d="M166.884 174.401C166.015 174.972 164.851 175.06 163.608 175.018C165.077 174.748 166.278 174.461 166.278 174.461L166.456 173.986C166.589 174.142 166.841 174.199 167.102 174.172C167.011 174.242 166.936 174.32 166.884 174.401ZM226 150.858C222.471 136.456 218.88 122.086 216.064 107.519C214.982 101.932 212.602 95.9404 207.6 92.74C202.533 89.4972 196.494 89.4369 190.721 90.3185C190.709 90.3201 190.701 90.3196 190.689 90.3212C190.531 90.3909 190.359 90.4293 190.197 90.4101C186.915 90.0173 184.175 87.6589 182.122 84.7102C179.194 88.7808 172.465 92.6154 168.44 88.6036C166.383 92.3263 163.402 95.5202 159.658 97.4672C157.772 98.5572 155.205 99.6791 152.608 99.6791C152.116 99.6791 151.636 99.638 151.176 99.5562C151.156 99.5518 151.137 99.5474 151.116 99.5447C148.323 99.5677 145.562 98.9769 143.079 97.7058C136.505 105.187 136.959 115.879 136.837 125.275C136.755 131.651 137.208 138.096 136.42 144.443C135.733 149.981 134.414 155.413 133.689 160.945C136.786 160.121 139.994 159.738 143.388 160.093C144.185 160.176 142.696 160.777 142.357 160.742C139.207 160.413 136.257 160.786 133.413 161.572C133.225 161.675 132.949 161.744 132.693 161.779C129.478 162.75 126.394 164.232 123.314 165.822C123.045 166.023 122.821 166.2 122.64 166.346C122.688 166.351 122.733 166.358 122.77 166.374C122.801 166.385 122.827 166.4 122.857 166.411C123.023 166.411 123.188 166.411 123.354 166.411C123.87 166.411 123.875 166.612 123.681 166.821C126.224 168.336 126.851 171.477 126.617 174.369C126.584 174.754 125.83 175.017 125.371 174.929C125.182 175.041 124.993 175.141 124.801 175.232C124.45 175.586 123.976 175.808 123.492 175.942C125.856 176.206 128.238 176.449 130.556 176.964C130.731 176.355 130.985 175.755 131.186 175.29C133.153 170.742 136.338 166.714 141.655 166.56C142.032 166.549 142.102 166.628 142.023 166.732C142.028 166.733 142.034 166.734 142.039 166.734C144.843 164.531 148.226 164.05 151.456 165.739C153.496 160.534 151.98 155.468 149.334 150.702C147.048 146.585 143.563 142.279 142.836 137.508C141.355 127.789 150.528 121.19 150.77 111.816C150.783 111.257 152.37 110.997 152.359 111.39C152.114 120.938 141.444 128.7 144.781 138.584C147.845 147.668 157.264 155.642 152.881 165.9C156.527 164.337 160.928 164.595 164.935 164.655C165.001 164.61 165.073 164.57 165.149 164.537C165.268 164.316 165.546 164.121 165.915 164.116C176.886 163.975 188.545 158.218 199.717 158.094C197.826 153.338 197.676 148.271 196.427 143.339C195.051 137.906 193.415 132.491 193.307 126.845C193.295 126.247 194.889 125.944 194.897 126.42C195.005 132.121 196.805 137.403 198.017 142.914C199.138 148.012 199.435 153.278 201.492 158.127C205.101 158.291 208.654 159.105 212.107 160.969C212.852 161.372 211.43 162.142 210.87 161.84C196.938 154.318 180.816 164.721 166.315 165.17C167.535 167.791 168.369 170.601 167.977 173.518C167.956 173.674 167.87 173.804 167.749 173.908C167.865 173.896 167.978 173.903 168.078 173.94C173.002 175.767 177.989 177.482 183.041 178.918C189.048 180.626 195.301 181.796 201.427 183.009C203.952 183.509 206.702 184.047 209.483 184.327C212.569 184.27 216.822 183.999 220.912 183.11C221.225 182.976 221.539 182.84 221.844 182.684C233.035 176.966 228.353 160.458 226 150.858ZM160.916 175.938C159.686 175.871 158.173 176.008 157.86 177.478C157.786 177.825 157.682 178.173 157.504 178.484L163.58 178.862C166.372 178.919 169.165 178.98 171.957 178.987C172.483 178.988 172.45 179.173 172.223 179.358L180.468 179.269C176.099 178.047 171.768 176.678 167.442 175.085C165.421 176.166 163.262 176.065 160.916 175.938ZM176.697 88.3079C175.678 88.7171 174.445 89.0951 173.124 89.2421C172.853 89.2723 172.599 89.2772 172.355 89.2717C173.778 89.5274 175.293 89.1055 176.697 88.3079Z" fill="#DAFB59"/>
<path d="M157.941 68.6196C156.642 69.3833 155.264 69.8271 153.747 69.6192C152.677 69.4721 153.49 68.3256 154.29 68.4353C155.392 68.5867 156.294 68.1994 157.228 67.6508C158.023 67.1856 158.869 68.0754 157.941 68.6196ZM161.728 56.465C161.959 55.5286 162.151 54.5762 162.57 53.7007C162.932 52.9392 161.331 53.0478 161.07 53.5948C160.611 54.5587 160.383 55.595 160.129 56.6258C159.961 57.3077 161.576 57.0816 161.728 56.465ZM147.81 55.0162C148.04 54.0792 148.233 53.1274 148.651 52.2518C149.014 51.4904 147.413 51.599 147.152 52.146C146.692 53.1098 146.464 54.1461 146.21 55.1775C146.043 55.8599 147.658 55.6334 147.81 55.0162ZM159.249 48.4605C160.366 48.1155 161.48 48.1028 162.524 48.6767C162.968 48.9208 164.436 48.2735 163.793 47.9191C162.341 47.1209 160.584 47.2119 159.043 47.6887C158.826 47.7556 158.262 47.9558 158.351 48.2877C158.436 48.6086 159.033 48.5275 159.249 48.4605ZM147.87 45.8651C147.518 45.858 147.037 45.9919 146.818 46.2886C146.592 46.5942 147.01 46.7144 147.239 46.7187C147.748 46.7292 148.184 46.9914 148.599 47.2646C148.907 47.4676 149.321 47.3941 149.646 47.2613C149.762 47.2136 150.382 46.857 150.078 46.6568C149.379 46.1954 148.722 45.8821 147.87 45.8651ZM227.555 179.745C219.767 189.046 205.096 185.103 195.078 182.882C190.132 181.785 185.277 180.614 180.468 179.269C176.099 178.047 171.767 176.679 167.441 175.084C165.419 176.166 163.262 176.064 160.915 175.938C159.685 175.872 158.172 176.008 157.859 177.478C157.784 177.825 157.681 178.173 157.503 178.483C157.488 178.511 157.475 178.54 157.458 178.566C157.413 178.637 157.362 178.703 157.315 178.771C159.403 178.783 161.491 178.82 163.579 178.862C166.371 178.919 169.164 178.98 171.956 178.988C172.482 178.989 172.449 179.172 172.222 179.358C172.221 179.36 172.219 179.361 172.217 179.363C172.345 179.445 172.431 179.572 172.431 179.758C172.431 181.612 172.431 183.464 172.431 185.317C172.431 185.496 172.323 185.645 172.164 185.754C172.88 185.764 171.404 186.35 171.105 186.349C139.218 186.343 107.335 185.705 75.4482 185.683C75.0065 186.011 74.0761 186.044 74.0761 185.461C74.0761 183.529 74.0761 181.596 74.0761 179.664C74.0761 179.081 75.4591 178.788 75.6528 179.364C79.9187 179.364 84.1856 179.367 88.4509 179.367C87.4909 178.504 88.3346 176.465 88.8432 175.29C90.7402 170.903 93.7761 167.011 98.7585 166.601C98.9379 166.511 99.1293 166.448 99.2818 166.448C106.478 166.447 113.675 166.422 120.871 166.415C120.91 166.389 120.958 166.361 121.016 166.332C124.652 164.428 128.298 162.613 132.095 161.409C132.911 155.188 134.584 149.076 135.032 142.808C135.492 136.362 135.208 129.875 135.278 123.417C135.377 114.281 135.484 104.315 142.17 97.2759C142.183 97.2627 142.202 97.2485 142.222 97.2358C141.381 96.7383 140.576 96.1628 139.821 95.4952C137.207 93.185 134.86 90.0641 133.819 86.6963C133.491 85.6364 133.306 84.5392 133.209 83.4283C132.9 81.9373 132.845 80.597 133.134 79.6392C133.156 79.5651 133.179 79.4834 133.203 79.3973C133.26 78.5925 133.342 77.7932 133.436 77.0087C133.838 73.6595 134.469 70.3455 135.236 67.0611C135.287 66.6837 135.316 66.4554 135.318 66.4412L135.58 65.6375C136.319 62.6318 137.158 59.6496 138.043 56.6905C138.045 56.6845 138.05 56.6784 138.053 56.6724C137.516 55.3382 137.7 53.5893 137.781 52.1531C137.861 50.7246 137.956 49.4776 139.414 48.7825C139.708 48.6421 140.005 48.5313 140.304 48.4331C142.738 43.5045 140.709 37.6483 143.113 32.683C143.528 31.8267 143.997 31.0082 144.518 30.2308C144.476 30.1057 144.504 29.9505 144.648 29.7667C152.295 19.9963 166.459 16.567 177.975 20.5953C177.32 18.9068 177.46 17.3367 178.149 16.0179C178.254 15.6668 178.462 15.3585 178.759 15.0847C179.917 13.6326 181.802 12.6062 183.951 12.2523C189.393 11.3554 193.331 12.1344 197.229 16.194C199.244 18.2918 201.494 20.9157 202.704 23.8035C202.834 24.0855 202.953 24.3669 203.054 24.6472C203.172 24.9753 203.252 25.3028 203.309 25.6287C203.452 26.219 203.549 26.8164 203.578 27.4215C203.78 31.5282 200.869 33.8641 197.397 35.2499C201.546 39.9162 200.349 46.1773 201.619 52.1306C203.118 59.1509 209.279 62.7568 214.12 67.388C218.878 71.9397 221.902 79.3962 220.251 86.0254C219.21 90.2084 216.38 93.5723 211.884 93.8944C211.675 93.9092 211.52 93.8785 211.412 93.8187L211.232 93.8565C214.515 97.0916 216.574 101.517 217.45 106.045C220.293 120.742 223.869 135.248 227.429 149.781C228.78 155.294 230.037 160.922 230.321 166.61C230.537 170.899 230.487 176.245 227.555 179.745ZM157.184 50.9873C159.551 48.9724 163.257 50.1299 166.27 50.8156C165.531 49.8907 164.791 48.9641 164.027 48.0595C160.733 44.1563 156.57 38.9765 156.349 33.6096L156.175 33.6343C154.788 36.2061 152.913 38.4487 152.807 41.5077C152.789 42.0091 151.197 42.3481 151.219 41.7178C151.33 38.5359 153.319 36.2132 154.751 33.5284C154.709 33.5383 154.664 33.5514 154.618 33.5657C154.034 34.0397 153.427 34.4851 152.821 34.9273C151.849 35.8232 150.491 36.9225 149.473 37.7268C149.046 38.1909 148.654 38.6928 148.316 39.2535C148.246 39.3687 148.129 39.4609 147.989 39.5289C147.702 42.5072 147.013 45.4235 146.257 48.3267C147.319 48.5093 148.378 48.7337 149.423 48.9065C149.841 48.6575 150.737 48.4945 150.804 48.7557C150.832 48.8687 150.844 48.9921 150.863 49.1117C151.014 49.1512 150.998 49.2264 150.897 49.3114C151.05 50.673 150.671 52.3643 150.413 53.7314C152.184 53.1943 153.978 53.6266 155.555 54.7227C155.763 53.3123 156.17 51.8503 157.184 50.9873ZM157.052 58.4092C157.385 59.6139 158.787 59.9629 159.89 60.1159C162.326 60.4544 167.258 61.0145 167.839 57.7306C168.187 55.7634 167.674 53.6162 166.874 51.774C164.314 51.3697 158.853 49.1243 157.776 52.1246C157.105 53.9942 156.507 56.4431 157.052 58.4092ZM144.542 55.0354C144.299 56.1106 144.059 57.2435 143.852 58.4087C144.398 58.4657 144.946 58.4915 145.487 58.4926C146.258 58.4937 147.067 58.4965 147.826 58.3313C147.846 58.3269 147.861 58.311 147.88 58.3001C148.028 57.8755 148.164 57.4695 148.275 57.0904C148.638 55.4287 148.898 53.7424 149.073 52.0511C149.148 51.334 149.338 50.4503 149.283 49.6735C148.457 49.5325 147.308 49.2307 146.09 48.9625C145.556 50.9862 145.003 53.0045 144.542 55.0354ZM172.355 89.2719C173.778 89.5276 175.292 89.1057 176.697 88.3086C178.526 87.2701 180.162 85.598 181.144 83.9605C181.201 83.8678 181.322 83.7882 181.474 83.7235C179.947 81.2647 178.872 78.5228 178.328 76.2061C177.615 73.1773 177.518 70.3773 179.84 68.0239C181.066 66.7818 183.326 65.2458 183.309 63.3082C183.296 61.5741 182.487 60.4758 181.337 60.0594C180.229 59.9711 179.16 60.2602 179.141 60.2662L179.067 60.2766H178.551C178.391 60.4297 178.023 60.5871 177.701 60.6579C177.192 60.9591 176.186 60.704 176.412 60.2794C176.411 60.2783 176.409 60.2777 176.406 60.2766H175.926L175.846 60.1861C175.801 60.1368 175.668 59.9886 175.472 59.7708C173.138 58.4219 171.217 56.628 169.452 54.6519C169.758 56.6686 169.434 58.6863 167.648 59.886C165.314 61.4545 160.719 61.2296 158.165 60.6563C155.806 60.1274 155.124 59.0143 155.351 56.5073C155.372 56.2719 155.395 56.0229 155.421 55.7672C155.108 55.855 154.78 55.8709 154.615 55.7359C153.384 54.7282 151.793 53.8779 150.259 54.6415C150.129 55.6723 150.078 57.148 149.447 58.0099C148.484 60.7561 147.129 64.3878 149.827 64.8256C150.716 64.9698 149.319 65.7308 148.845 65.6539C145.587 65.1257 146.65 61.8198 147.644 58.9699C146.475 59.2804 145.076 59.366 143.708 59.2689C142.943 64.0713 142.871 69.3114 145.599 73.303C147.959 76.7558 151.467 77.9205 155.226 78.2743C155.893 78.2688 156.587 78.2485 157.267 78.2255C158.024 78.2003 158.806 78.1739 159.52 78.1739C160.697 78.1739 161.525 78.2469 162.133 78.4038C163.594 78.4932 165.008 78.8717 165.917 80.1702C167.368 82.2434 167.993 84.7197 169.299 86.8707C169.308 86.8845 169.301 86.9031 169.288 86.9223C169.287 86.9283 169.29 86.9338 169.287 86.9404C169.252 87.0156 169.212 87.0891 169.178 87.1642C169.203 87.1818 169.226 87.2016 169.244 87.2257C170.154 88.4386 171.224 89.0684 172.355 89.2719ZM139.365 53.8329C139.46 55.4254 139.331 57.0509 141.018 57.7356C141.422 57.899 141.84 58.028 142.264 58.1327C142.856 55.0124 143.761 51.8711 144.588 48.7507L144.354 48.7195L142.221 48.4671C142.044 48.4726 141.87 48.4852 141.705 48.505C141.687 48.539 141.672 48.5735 141.653 48.6075C141.49 48.8999 140.686 49.0349 140.293 48.9998C140.187 49.0799 140.082 49.1644 139.997 49.2664C139.053 50.3949 139.285 52.4773 139.365 53.8329ZM89.637 178.349C90.5213 180.278 92.9214 177.502 93.6834 176.636C93.7454 176.566 93.8848 176.5 94.0543 176.446C94.8261 174.382 96.5191 172.02 96.8554 170.908C97.0677 170.208 98.6515 170.213 98.381 171.11C97.8769 172.774 96.7073 174.2 95.9272 175.739C95.6841 176.219 94.8316 177.567 95.237 178.118C95.6628 178.696 96.1943 179.165 96.952 178.9C99.4673 178.019 101.342 174.997 102.757 172.875C102.765 172.864 102.775 172.855 102.784 172.844C102.9 172.627 103.017 172.414 103.131 172.211C103.393 171.75 104.991 171.587 104.614 172.253C104.5 172.455 104.363 172.712 104.218 173.005C104.221 173.111 104.187 173.233 104.095 173.371C104.038 173.458 103.974 173.552 103.914 173.644C103.062 175.518 102.17 178.254 103.296 179.37C104.439 179.37 105.581 179.37 106.725 179.37C107.597 178.833 108.325 177.895 108.936 176.971C108.993 176.825 109.047 176.687 109.096 176.569C109.137 176.466 109.237 176.376 109.365 176.303C109.549 176.009 109.722 175.726 109.882 175.473C110.719 174.152 111.516 172.792 112.593 171.649C112.962 171.258 114.517 171.238 113.872 171.922C112.683 173.181 111.682 175.106 110.515 176.835C110.284 177.568 110.079 178.588 110.129 179.371C111.067 179.371 112.006 179.371 112.944 179.372C113.752 178.435 113.77 177.328 114.528 176.228C116.521 173.339 122.024 176.212 124.636 174.34C124.724 174.277 124.875 174.229 125.044 174.196C125.196 171.43 124.485 168.474 121.768 167.282C114.063 167.286 106.358 167.316 98.6526 167.317C98.4507 167.317 98.3262 167.286 98.262 167.236C94.6007 167.549 92.2681 170.91 90.8477 174.023C90.3705 175.078 89.1049 177.188 89.637 178.349ZM136.022 177.971C135.377 178.532 134.654 179.043 133.888 179.377C134.72 179.377 135.552 179.378 136.384 179.378C136.08 179.002 135.981 178.52 136.022 177.971ZM121.132 176.008C120.303 176.028 119.451 175.985 118.573 175.938C117.342 175.872 115.829 176.008 115.516 177.478C115.436 177.855 115.324 178.237 115.115 178.566C114.932 178.854 114.726 179.123 114.501 179.372C119.936 179.374 125.37 179.375 130.806 179.377C130.416 179.034 130.315 178.502 130.372 177.91C127.316 177.098 124.101 176.884 120.972 176.501C120.494 176.442 120.748 176.2 121.132 176.008ZM110.396 180.265C110.643 180.586 111.083 180.653 111.802 180.265C111.333 180.265 110.864 180.265 110.396 180.265ZM101.2 177.313C100.487 178.119 99.7026 178.845 98.8633 179.369C99.7865 179.369 100.709 179.369 101.633 179.37C101.249 178.798 101.136 178.087 101.2 177.313ZM91.5675 179.367C92.3887 179.367 93.2094 179.367 94.0307 179.368C93.7333 178.994 93.6363 178.514 93.6774 177.971C93.0394 178.527 92.3246 179.034 91.5675 179.367ZM170.931 185.751C170.866 185.673 170.824 185.575 170.824 185.448C170.824 183.595 170.824 181.742 170.824 179.889C170.824 179.835 170.836 179.785 170.855 179.736C169.597 179.73 168.338 179.716 167.08 179.695C167.08 181.565 167.08 183.434 167.08 185.305C167.08 185.483 166.949 185.633 166.764 185.74C168.153 185.743 169.542 185.75 170.931 185.751ZM156.699 179.526C156.469 179.763 156.22 179.982 155.946 180.175C154.791 180.987 153.242 181.664 151.816 181.238C150.915 180.971 150.654 180.24 150.681 179.408C149.608 180.317 148.34 180.863 146.738 180.699C144.126 180.431 143.402 179.027 143.545 177.315C142.081 178.965 140.329 180.314 138.404 180.181C138.273 180.172 138.154 180.156 138.034 180.141C137.869 180.22 137.699 180.271 137.557 180.271C129.526 180.271 121.497 180.269 113.466 180.266C112.328 181.035 110.845 181.648 109.474 181.238C108.905 181.068 108.596 180.711 108.448 180.265C107.974 180.265 107.5 180.265 107.026 180.265C106.256 180.627 105.391 180.802 104.395 180.699C103.707 180.629 103.152 180.477 102.708 180.264C93.6982 180.261 84.6881 180.258 75.6786 180.258C75.6786 181.867 75.6786 183.477 75.6786 185.086C105.649 185.096 135.615 185.655 165.584 185.738C165.521 185.668 165.481 185.578 165.481 185.463C165.481 183.53 165.481 181.599 165.481 179.667C162.552 179.608 159.626 179.543 156.699 179.526ZM166.884 174.401C166.937 174.321 167.011 174.242 167.102 174.173C166.841 174.199 166.589 174.142 166.456 173.987C166.378 173.898 166.34 173.777 166.361 173.621C166.74 170.798 165.906 168.052 164.692 165.528C160.819 165.469 156.269 164.969 152.816 166.847C152.736 167.118 152.307 167.365 151.913 167.416C151.418 167.771 150.95 168.184 150.521 168.672C150.196 169.042 148.602 169.164 149.046 168.658C149.618 168.006 150.239 167.462 150.896 167.001C147.729 165.049 144.589 165.618 141.971 168.429C141.517 168.918 139.979 168.737 140.655 168.011C141.06 167.575 141.484 167.181 141.921 166.829C141.685 167.003 141.2 167.2 140.971 167.206C137.097 167.318 134.662 170.809 133.196 174.023C132.715 175.078 131.449 177.189 131.982 178.35C132.865 180.279 135.265 177.503 136.027 176.637C136.089 176.566 136.229 176.5 136.399 176.447C137.17 174.383 138.863 172.022 139.199 170.91C139.411 170.209 140.995 170.215 140.724 171.111C140.221 172.775 139.052 174.201 138.272 175.74C138.028 176.22 137.176 177.568 137.581 178.119C138.007 178.697 138.538 179.166 139.297 178.901C141.812 178.02 143.687 174.998 145.102 172.876C145.109 172.865 145.119 172.856 145.128 172.845C145.244 172.628 145.361 172.415 145.476 172.212C145.737 171.751 147.335 171.588 146.958 172.254C146.844 172.457 146.708 172.713 146.561 173.005C146.566 173.112 146.531 173.233 146.439 173.372C146.382 173.458 146.318 173.553 146.257 173.645C145.071 176.257 143.8 180.546 148.024 179.786C149.379 179.543 150.439 178.243 151.281 176.973C151.338 176.827 151.393 176.689 151.441 176.571C151.483 176.468 151.583 176.378 151.71 176.304C151.894 176.01 152.066 175.728 152.227 175.474C153.065 174.153 153.861 172.793 154.939 171.65C155.307 171.26 156.862 171.24 156.217 171.923C155.029 173.183 154.027 175.107 152.86 176.837C152.318 178.561 151.911 181.875 154.648 179.95C156.125 178.91 155.952 177.565 156.874 176.23C158.195 174.312 161.064 174.932 163.607 175.019C164.851 175.06 166.016 174.973 166.884 174.401ZM220.912 183.11C221.226 182.977 221.539 182.841 221.844 182.685C233.033 176.967 228.352 160.458 226 150.858C222.471 136.456 218.88 122.087 216.063 107.519C214.982 101.932 212.601 95.9406 207.6 92.7407C202.532 89.4979 196.493 89.4376 190.72 90.3192C190.709 90.3208 190.7 90.3203 190.688 90.3219C190.53 90.3916 190.358 90.43 190.196 90.4108C186.914 90.018 184.174 87.6596 182.121 84.7109C179.193 88.7815 172.464 92.6162 168.439 88.6043C166.382 92.327 163.401 95.5204 159.657 97.4673C157.771 98.5574 155.204 99.6793 152.607 99.6793C152.115 99.6793 151.634 99.6381 151.175 99.5564C151.155 99.552 151.135 99.5476 151.115 99.5449C148.322 99.5679 145.561 98.9771 143.078 97.706C136.504 105.187 136.958 115.88 136.836 125.275C136.754 131.652 137.207 138.097 136.419 144.443C135.732 149.982 134.413 155.413 133.687 160.945C136.785 160.121 139.992 159.739 143.387 160.093C144.184 160.176 142.695 160.778 142.356 160.743C139.206 160.413 136.255 160.786 133.412 161.572C133.224 161.675 132.948 161.744 132.692 161.779C129.477 162.75 126.393 164.232 123.312 165.823C122.947 166.012 122.581 166.202 122.214 166.394C122.368 166.354 122.517 166.335 122.639 166.347C122.686 166.351 122.731 166.358 122.769 166.374C122.8 166.385 122.826 166.4 122.856 166.412C123.022 166.412 123.187 166.412 123.353 166.412C123.869 166.412 123.874 166.612 123.679 166.821C126.223 168.337 126.85 171.477 126.616 174.369C126.584 174.755 125.829 175.017 125.37 174.929C125.181 175.042 124.992 175.142 124.8 175.233C124.144 175.545 123.473 175.744 122.785 175.861C123.021 175.889 123.255 175.917 123.491 175.942C125.855 176.207 128.237 176.45 130.554 176.965C130.729 176.356 130.984 175.755 131.185 175.291C133.152 170.743 136.337 166.715 141.654 166.56C142.03 166.549 142.101 166.628 142.022 166.733C142.01 166.748 141.994 166.765 141.976 166.781C141.996 166.765 142.018 166.751 142.038 166.736C144.842 164.532 148.225 164.051 151.455 165.74C153.494 160.535 151.979 155.469 149.333 150.703C147.047 146.587 143.562 142.28 142.835 137.509C141.354 127.791 150.527 121.191 150.768 111.817C150.782 111.258 152.369 110.999 152.358 111.392C152.113 120.939 141.443 128.701 144.779 138.586C147.844 147.67 157.263 155.643 152.88 165.901C156.526 164.339 160.927 164.596 164.934 164.657C165 164.611 165.071 164.571 165.148 164.539C165.267 164.318 165.545 164.123 165.914 164.117C176.885 163.976 188.544 158.219 199.716 158.096C197.825 153.339 197.675 148.272 196.426 143.341C195.05 137.907 193.413 132.493 193.306 126.847C193.294 126.249 194.887 125.945 194.895 126.421C195.003 132.123 196.804 137.405 198.016 142.915C199.136 148.014 199.432 153.279 201.49 158.128C205.099 158.292 208.652 159.106 212.105 160.971C212.85 161.373 211.428 162.144 210.867 161.841C196.936 154.32 180.814 164.723 166.313 165.171C167.533 167.792 168.367 170.603 167.975 173.519C167.954 173.675 167.868 173.805 167.746 173.909C167.863 173.898 167.976 173.904 168.076 173.942C173 175.768 177.987 177.483 183.038 178.92C189.046 180.627 195.299 181.798 201.425 183.011C203.95 183.511 206.7 184.048 209.481 184.329C213.417 184.727 217.407 184.601 220.912 183.11ZM63.1706 186.818C62.4854 187.099 61.7564 187.342 61.0125 187.524C61.0081 187.525 61.0053 187.528 61.0009 187.529C59.2059 188.226 57.1504 188.26 55.2506 188.312C51.9426 188.401 48.6252 188.293 45.3254 188.045C41.5505 187.761 34.7403 188.225 32.6277 184.348C29.6038 178.8 29.9182 170.946 31.0236 164.617C22.4227 164.617 13.823 164.617 5.2221 164.617C5.09647 164.662 4.97084 164.687 4.86497 164.684C1.23876 164.56 0.0757424 161.426 0.371983 158.212C0.3654 139.96 0.0444716 121.71 0.0384371 103.457C-0.292914 99.7967 1.51745 96.2808 5.49366 96.1239C5.73559 96.114 5.86066 96.1546 5.90894 96.2193C34.4484 96.2193 62.9879 96.2193 91.5275 96.2193C91.6772 96.1579 91.8319 96.1195 91.9586 96.1239C92.2368 96.1354 92.4974 96.171 92.7497 96.2193C94.0389 96.2193 95.3259 96.2193 96.6146 96.2193C96.7649 96.1579 96.9196 96.1195 97.0458 96.1239C100.756 96.2714 102.164 99.8301 101.874 103.118C101.866 121.209 101.552 139.296 101.542 157.387C101.846 160.903 100.106 164.137 96.4752 164.506C96.3633 164.539 96.2684 164.559 96.2125 164.559C81.921 164.559 67.6291 164.559 53.3393 164.559C53.1314 165.924 52.9662 167.299 52.8686 168.687C52.4237 174.937 52.0923 190.41 62.531 186.121C63.2622 185.818 64.1949 186.397 63.1706 186.818ZM94.4284 96.8941C96.2903 98.141 96.9997 100.7 96.7857 103.117C96.7786 121.309 96.4599 139.498 96.4522 157.691C96.6979 160.44 95.6463 162.86 93.4684 163.942C94.3105 163.942 95.1526 163.942 95.9947 163.942C96.2135 163.798 96.4834 163.682 96.6815 163.675C99.2303 163.577 100.014 160.558 99.9775 158.365C99.9615 158.343 99.9495 158.318 99.9495 158.289C99.9495 158.127 99.9511 157.967 99.9517 157.805C99.9506 157.795 99.9506 157.784 99.9495 157.775C99.9484 157.765 99.9517 157.757 99.9517 157.749C99.9637 139.651 100.279 121.553 100.284 103.455C100.284 103.443 100.29 103.429 100.291 103.417C100.288 103.394 100.284 103.373 100.286 103.348C100.52 100.764 99.5556 97.113 96.4182 96.9884C96.2212 96.9807 96.0989 96.9451 96.0331 96.8935C95.4982 96.8941 94.9627 96.8941 94.4284 96.8941ZM31.1547 163.884C31.2189 163.54 31.2836 163.197 31.3522 162.864C33.625 151.791 36.984 140.923 33.8329 129.648C33.6837 129.113 35.0119 128.709 35.3542 129.102C41.8578 129.102 48.3613 129.102 54.8649 129.102C55.3054 128.886 55.9632 128.856 56.0652 129.223C58.2722 137.124 57.457 145.023 55.7317 152.935C54.928 156.619 54.0322 160.259 53.4347 163.959C53.477 163.95 53.5148 163.945 53.5417 163.945C65.9992 163.945 78.4572 163.945 90.9147 163.945C91.1341 163.8 91.4046 163.684 91.6043 163.677C94.2633 163.586 95.0055 160.554 94.8744 158.348C94.8651 158.331 94.8596 158.313 94.8596 158.291C94.8596 158.234 94.8602 158.175 94.8602 158.116C94.8602 158.113 94.8602 158.109 94.8596 158.105C94.8591 158.102 94.8607 158.099 94.8602 158.096C94.8689 139.883 95.1888 121.671 95.1937 103.457C95.1937 103.445 95.1992 103.432 95.2008 103.42C95.1976 103.397 95.1932 103.376 95.1954 103.35C95.4302 100.767 94.4652 97.1152 91.3278 96.9906C91.1308 96.9829 91.0085 96.9473 90.9427 96.8957C62.3708 96.8957 33.7995 96.8957 5.22759 96.8957C5.09867 96.9511 4.96975 96.9862 4.86277 96.9906C2.06769 97.1014 1.42802 100.864 1.62607 103.033C1.6321 121.311 1.95413 139.588 1.95961 157.866C1.95961 157.879 1.95468 157.891 1.95248 157.904C1.95577 157.926 1.96071 157.948 1.95797 157.974C1.71878 160.486 2.42262 163.713 5.49036 163.818C5.65165 163.824 5.75808 163.849 5.8294 163.886C14.2728 163.884 22.7135 163.884 31.1547 163.884ZM56.0949 187.42C55.1409 187.043 54.2812 186.401 53.6021 185.395C51.2727 181.948 51.0511 177.348 51.09 173.316C51.2316 158.557 58.574 144.538 54.5072 129.767C48.1907 129.767 41.8759 129.767 35.5594 129.767C38.1191 139.558 35.9362 149.075 33.7874 158.748C32.27 165.578 30.9457 173.459 32.8213 180.352C33.4868 182.795 34.319 185.323 36.9742 185.935C39.518 186.522 42.1354 186.799 44.7346 187.009C47.7184 187.249 50.7165 187.411 53.7118 187.401C54.459 187.398 55.2709 187.422 56.0949 187.42ZM56.2227 62.4699C58.1088 55.5017 59.9943 48.5335 61.8803 41.5658C61.9473 41.3184 62.3675 41.1357 62.7597 41.0748C63.186 40.8631 63.8536 40.7802 64.0045 41.1023C64.0215 41.1407 64.0456 41.1785 64.0643 41.2164C73.2834 43.7108 82.5003 46.2058 91.7195 48.7014C92.1468 48.4446 93.6176 48.4128 92.9373 48.9329C92.905 48.9575 92.8677 48.9784 92.8348 49.0025C92.9066 49.0223 92.9785 49.0415 93.0504 49.0607C93.3252 49.1353 93.4058 49.2637 93.3729 49.4041C93.3713 49.4156 93.374 49.426 93.3702 49.4387C91.4841 56.4069 89.5986 63.3751 87.7125 70.3433C87.6873 70.4355 87.6121 70.5189 87.5096 70.5902C87.2325 70.8266 86.7552 71.012 86.4513 70.9298C76.677 68.2844 66.9016 65.6397 57.1273 62.9938C56.9227 62.9384 56.8278 62.8523 56.8048 62.7541C56.4526 62.7859 56.1585 62.708 56.2227 62.4699ZM65.1412 42.7393C65.4643 43.1205 65.7929 43.4914 66.0672 43.8474C67.4332 45.6155 68.8074 47.377 70.185 49.1364C71.9887 51.4405 73.7963 53.7424 75.6078 56.0399C77.9772 54.9778 80.3466 53.9141 82.7121 52.8443C84.9586 51.8289 88.0998 50.8343 90.371 49.5676C81.9611 47.2909 73.5511 45.0154 65.1412 42.7393ZM57.874 62.0036C57.9442 62.0009 58.0122 62.0042 58.0709 62.0201C67.5029 64.5727 76.936 67.1258 86.3679 69.6779C88.1492 63.0948 89.9305 56.5128 91.7123 49.9296C91.6355 49.9088 91.5593 49.8885 91.483 49.8677C89.2541 51.125 86.5188 51.9748 84.3195 52.9694C81.2698 54.3491 78.2175 55.7233 75.1624 57.091C74.5951 57.3455 73.8523 57.091 74.2007 56.7366C72.1369 54.1192 70.0774 51.4981 68.0257 48.8714C66.5335 46.9629 64.4379 44.9161 63.0834 42.7475C61.3477 49.1666 59.6108 55.5851 57.874 62.0036ZM21.5697 24.6791C20.0473 18.9567 18.5239 13.2343 17.0015 7.51196C16.9516 7.32544 17.1359 7.1499 17.3954 7.02811C17.5891 6.83226 18.0916 6.62544 18.4811 6.60514C25.9902 4.60717 33.4983 2.60865 41.008 0.611224C41.0288 0.565691 41.0568 0.519609 41.0766 0.474076C41.2889 -0.0125256 42.8529 -0.189173 42.6604 0.254638C42.6593 0.256832 42.6576 0.259576 42.6565 0.26177C42.7547 0.276582 42.8359 0.305655 42.9012 0.348994C43.0274 0.381361 43.1217 0.444451 43.1503 0.550878C44.6721 6.27324 46.1966 11.9956 47.7189 17.718C47.748 17.8277 47.6937 17.9336 47.5939 18.0268C47.5105 18.1788 47.3415 18.3214 47.0486 18.3993C39.0215 20.5361 30.9934 22.6729 22.9669 24.8085C22.7914 24.8552 22.6476 24.8524 22.5215 24.831C22.11 24.9534 21.6404 24.9446 21.5697 24.6791ZM19.863 7.25852C21.8653 8.30029 24.3521 8.94763 26.355 9.75241C28.46 10.5989 30.5666 11.4415 32.6748 12.2803C33.9739 10.4787 35.2724 8.67718 36.566 6.87066C37.7 5.28688 39.2761 3.56485 40.3612 1.80332C33.5279 3.6219 26.6957 5.43993 19.863 7.25852ZM18.8618 8.1028C20.2514 13.3254 21.6393 18.5474 23.0311 23.7695C30.6873 21.7331 38.3435 19.6945 45.9996 17.6565C44.5974 12.3878 43.1952 7.12081 41.7936 1.85214C40.6876 3.60598 39.1724 5.27919 38.0346 6.86572C36.5221 8.97561 35.0064 11.0833 33.4879 13.1871C33.2185 13.5596 31.7362 13.7297 31.9886 13.2464C29.5144 12.2617 27.0424 11.2731 24.5732 10.2785C22.7947 9.5626 20.6859 8.97342 18.8618 8.1028ZM45.016 60.8258C45.174 60.9037 45.2234 61.0068 45.202 61.1171C45.2003 61.1286 45.2025 61.1379 45.1987 61.15C43.9989 65.2206 42.7991 69.2911 41.5983 73.3617C41.595 73.3732 41.5857 73.3825 41.5807 73.3935C41.5676 73.4226 41.5505 73.4516 41.5292 73.4813C41.3119 73.7797 40.6997 74.06 40.336 73.9525C34.6273 72.2689 28.9181 70.5858 23.2078 68.9022C23.0465 68.8544 22.9549 68.7886 22.9104 68.714C22.6635 68.7003 22.4918 68.613 22.5461 68.4293C23.7465 64.3593 24.9468 60.2898 26.1466 56.2193C26.2086 56.0075 26.5295 55.8451 26.8669 55.7656C27.2871 55.5774 27.8873 55.516 28.0414 55.8073C33.4259 57.3954 38.812 58.982 44.1964 60.5707C44.6863 60.5131 45.236 60.5745 45.016 60.8258ZM28.9587 57.3318C29.7454 58.4284 30.7268 59.4812 31.4679 60.4736C32.4949 61.8489 33.5252 63.222 34.5571 64.5935C35.8874 64.0329 37.2172 63.4705 38.5453 62.9055C39.6771 62.4238 41.29 61.8933 42.5194 61.3305C37.9989 59.9969 33.4791 58.6649 28.9587 57.3318ZM43.5145 61.7118C42.2231 62.3311 40.7853 62.7892 39.5301 63.3235C37.7559 64.0789 35.9801 64.8311 34.2032 65.5793C33.687 65.7966 33.021 65.604 33.1625 65.3105C32.0302 63.8052 30.899 62.2982 29.7728 60.7879C29.0196 59.7785 28.0304 58.717 27.2575 57.6039C26.2409 61.0502 25.2249 64.4964 24.2084 67.9432C29.5654 69.5226 34.9213 71.1026 40.2795 72.682C41.358 69.0261 42.436 65.3692 43.5145 61.7118ZM90.1039 19.3879C92.2187 16.5632 94.3352 13.7385 96.4505 10.9143C96.5833 10.7371 96.9969 10.6071 97.3623 10.5737C97.7776 10.4612 98.2269 10.4853 98.2499 10.7316C98.2532 10.7635 98.2598 10.7958 98.2625 10.8277C102 13.6266 105.736 16.4255 109.474 19.2244C109.918 19.1959 110.114 19.4087 109.996 19.6282C110.052 19.6836 110.086 19.7395 110.1 19.7966C110.103 19.8087 110.106 19.8207 110.107 19.8328C110.125 19.9891 110.012 20.1422 109.837 20.2656C107.812 22.9696 105.787 25.6737 103.761 28.3782C103.7 28.8012 102.731 29.1775 102.342 28.8862C98.3799 25.9183 94.4175 22.9504 90.4544 19.9826C90.3408 19.8975 90.2898 19.807 90.2789 19.7176C90.0687 19.6803 89.9596 19.5793 90.1039 19.3879ZM98.7683 12.9853C99.0399 13.8317 99.3581 14.6716 99.5901 15.4611C99.9988 16.8556 100.411 18.2501 100.826 19.6435C102.063 19.5903 103.3 19.5366 104.538 19.479C105.293 19.4444 106.382 19.4449 107.355 19.4159C104.492 17.2731 101.63 15.1297 98.7683 12.9853ZM91.7376 19.163C95.4653 21.9553 99.1941 24.7476 102.923 27.5405C104.754 25.0971 106.583 22.6531 108.413 20.2097C108.387 20.1905 108.362 20.1707 108.335 20.1521C107.113 20.2832 105.818 20.2256 104.635 20.281C102.967 20.3589 101.299 20.433 99.6307 20.5037C99.1617 20.524 99.1238 20.3688 99.2753 20.1872C99.2725 20.1801 99.2665 20.1751 99.2643 20.1674C98.8062 18.6275 98.3509 17.086 97.9005 15.5444C97.6004 14.5213 97.1434 13.4077 96.8691 12.3132C95.1586 14.5965 93.447 16.8797 91.7376 19.163ZM98.4913 76.9346C102.835 75.2077 107.179 73.4796 111.523 71.7526C111.674 71.2979 113.007 71.0773 113.106 71.4301C113.256 71.4553 113.376 71.519 113.423 71.6358C114.727 74.9158 116.033 78.1953 117.337 81.4759C117.36 81.5335 117.354 81.5927 117.325 81.6503C117.326 81.7979 117.198 81.9576 116.873 82.087C112.272 83.9166 107.672 85.7461 103.072 87.5762C102.92 87.6371 102.762 87.6563 102.613 87.6487C102.217 87.7639 101.773 87.7578 101.669 87.4994C100.365 84.22 99.0607 80.9405 97.7573 77.661C97.6991 77.5123 97.827 77.3615 98.0327 77.2419C98.0629 77.2128 98.098 77.1848 98.1375 77.1563C98.2099 77.0767 98.3218 77.0021 98.4913 76.9346ZM112.312 73.2684C111.845 74.0962 111.301 74.906 110.879 75.674C110.107 77.0767 109.333 78.4784 108.555 79.8784C108.35 80.2476 107.081 80.4539 107.039 80.0605C105.565 79.6672 104.089 79.2716 102.616 78.8723C101.715 78.6281 100.695 78.4493 99.7273 78.1887C100.831 80.9646 101.934 83.7405 103.038 86.5164C107.224 84.8514 111.41 83.187 115.596 81.522C114.501 78.7702 113.406 76.0201 112.312 73.2684ZM100.354 77.2649C101.52 77.6489 102.824 77.853 103.949 78.1569C105.136 78.4773 106.323 78.7955 107.511 79.1126C108.093 78.0637 108.674 77.0142 109.253 75.9636C109.763 75.0371 110.448 74.049 110.969 73.0435C107.431 74.4501 103.893 75.8583 100.354 77.2649Z" fill="#1B1E27"/>
</svg>
